/videos/3b6f6b14-5733-5f15-f502-fc128d6ab1a3/hls1/main/0.ts

{"Protocol":0,"Id":"3b6f6b1457335f15f502fc128d6ab1a3","Path":"/data/media/tv/Soundtrack (2022)/Season 1/Soundtrack.1.S01E01.KOREAN.1080p.WEBRip.x265-RARBG.mp4","EncoderPath":null,"EncoderProtocol":null,"Type":0,"Container":"mov,mp4,m4a,3gp,3g2,mj2","Size":720085568,"Name":"Soundtrack.1.S01E01.KOREAN.1080p.WEBRip.x265-RARBG","IsRemote":false,"ETag":"9cfadc57946e85c76119b90b4324cbb8","RunTimeTicks":25838499840,"ReadAtNativeFramerate":false,"IgnoreDts":false,"IgnoreIndex":false,"GenPtsInput":false,"SupportsTranscoding":true,"SupportsDirectStream":true,"SupportsDirectPlay":true,"IsInfiniteStream":false,"RequiresOpening":false,"OpenToken":null,"RequiresClosing":false,"LiveStreamId":null,"BufferMs":null,"RequiresLooping":false,"SupportsProbing":true,"VideoType":0,"IsoType":null,"Video3DFormat":null,"MediaStreams":[{"Codec":"subrip","CodecTag":null,"Language":"eng","ColorRange":null,"ColorSpace":null,"ColorTransfer":null,"ColorPrimaries":null,"DvVersionMajor":null,"DvVersionMinor":null,"DvProfile":null,"DvLevel":null,"RpuPresentFlag":null,"ElPresentFlag":null,"BlPresentFlag":null,"DvBlSignalCompatibilityId":null,"Comment":null,"TimeBase":"1/1000","CodecTimeBase":null,"Title":null,"VideoRange":null,"VideoRangeType":null,"VideoDoViTitle":null,"LocalizedUndefined":"Undefined","LocalizedDefault":"Default","LocalizedForced":"Forced","LocalizedExternal":"External","DisplayTitle":"English - SUBRIP - External","NalLengthSize":null,"IsInterlaced":false,"IsAVC":null,"ChannelLayout":null,"BitRate":null,"BitDepth":null,"RefFrames":null,"PacketLength":null,"Channels":null,"SampleRate":null,"IsDefault":false,"IsForced":false,"Height":null,"Width":null,"AverageFrameRate":null,"RealFrameRate":null,"Profile":null,"Type":2,"AspectRatio":null,"Index":0,"Score":null,"IsExternal":true,"DeliveryMethod":null,"DeliveryUrl":null,"IsExternalUrl":null,"IsTextSubtitleStream":true,"SupportsExternalStream":true,"Path":"/data/media/tv/Soundtrack (2022)/Season 1/Soundtrack.1.S01E01.KOREAN.1080p.WEBRip.x265-RARBG.en.srt","PixelFormat":null,"Level":0,"IsAnamorphic":null},{"Codec":"hevc","CodecTag":"hev1","Language":"und","ColorRange":null,"ColorSpace":null,"ColorTransfer":null,"ColorPrimaries":null,"DvVersionMajor":null,"DvVersionMinor":null,"DvProfile":null,"DvLevel":null,"RpuPresentFlag":null,"ElPresentFlag":null,"BlPresentFlag":null,"DvBlSignalCompatibilityId":null,"Comment":null,"TimeBase":"1/24000","CodecTimeBase":null,"Title":null,"VideoRange":"SDR","VideoRangeType":"SDR","VideoDoViTitle":null,"LocalizedUndefined":null,"LocalizedDefault":null,"LocalizedForced":null,"LocalizedExternal":null,"DisplayTitle":"1080p HEVC SDR","NalLengthSize":null,"IsInterlaced":false,"IsAVC":null,"ChannelLayout":null,"BitRate":2000044,"BitDepth":10,"RefFrames":1,"PacketLength":null,"Channels":null,"SampleRate":null,"IsDefault":true,"IsForced":false,"Height":960,"Width":1920,"AverageFrameRate":23.976025,"RealFrameRate":23.976025,"Profile":"Main 10","Type":1,"AspectRatio":"2:1","Index":1,"Score":null,"IsExternal":false,"DeliveryMethod":null,"DeliveryUrl":null,"IsExternalUrl":null,"IsTextSubtitleStream":false,"SupportsExternalStream":false,"Path":null,"PixelFormat":"yuv420p10le","Level":120,"IsAnamorphic":null},{"Codec":"aac","CodecTag":"mp4a","Language":"kor","ColorRange":null,"ColorSpace":null,"ColorTransfer":null,"ColorPrimaries":null,"DvVersionMajor":null,"DvVersionMinor":null,"DvProfile":null,"DvLevel":null,"RpuPresentFlag":null,"ElPresentFlag":null,"BlPresentFlag":null,"DvBlSignalCompatibilityId":null,"Comment":null,"TimeBase":"1/48000","CodecTimeBase":null,"Title":null,"VideoRange":null,"VideoRangeType":null,"VideoDoViTitle":null,"LocalizedUndefined":null,"LocalizedDefault":null,"LocalizedForced":null,"LocalizedExternal":null,"DisplayTitle":"Korean - AAC - 5.1 - Default","NalLengthSize":null,"IsInterlaced":false,"IsAVC":null,"ChannelLayout":"5.1","BitRate":224000,"BitDepth":null,"RefFrames":null,"PacketLength":null,"Channels":6,"SampleRate":48000,"IsDefault":true,"IsForced":false,"Height":null,"Width":null,"AverageFrameRate":null,"RealFrameRate":null,"Profile":"LC","Type":0,"AspectRatio":null,"Index":2,"Score":null,"IsExternal":false,"DeliveryMethod":null,"DeliveryUrl":null,"IsExternalUrl":null,"IsTextSubtitleStream":false,"SupportsExternalStream":false,"Path":null,"PixelFormat":null,"Level":0,"IsAnamorphic":null}],"MediaAttachments":[],"Formats":[],"Bitrate":2229496,"Timestamp":null,"RequiredHttpHeaders":{},"TranscodingUrl":null,"TranscodingSubProtocol":null,"TranscodingContainer":null,"AnalyzeDurationMs":null,"DefaultAudioStreamIndex":null,"DefaultSubtitleStreamIndex":null}

/usr/lib/jellyfin-ffmpeg/ffmpeg -analyzeduration 200M -f mov,mp4,m4a,3gp,3g2,mj2 -autorotate 0 -i file:"/data/media/tv/Soundtrack (2022)/Season 1/Soundtrack.1.S01E01.KOREAN.1080p.WEBRip.x265-RARBG.mp4" -map_metadata -1 -map_chapters -1 -threads 0 -map 0:0 -map 0:1 -map -0:s -codec:v:0 libx264 -preset veryfast -crf 23 -maxrate 6666813 -bufsize 13333626 -x264opts:0 subme=0:me_range=4:rc_lookahead=10:me=dia:no_chroma_me:8x8dct=0:partitions=none -force_key_frames:0 "expr:gte(t,0+n_forced*3)" -sc_threshold:v:0 0 -vf "setparams=color_primaries=bt709:color_trc=bt709:colorspace=bt709,scale=trunc(min(max(iw\,ih*a)\,min(1920\,960*a))/2)*2:trunc(min(max(iw/a\,ih)\,min(1920/a\,960))/2)*2,format=yuv420p" -codec:a:0 libfdk_aac -ac 2 -ab 384000 -ar 48000 -af "volume=2" -copyts -avoid_negative_ts disabled -max_muxing_queue_size 2048 -f hls -max_delay 5000000 -hls_time 3 -hls_segment_type mpegts -start_number 0 -hls_segment_filename "/config/data/transcodes/7825d04a3ae9c06a3dd94820a00f8a6f%d.ts" -hls_playlist_type vod -hls_list_size 0 -y "/config/data/transcodes/7825d04a3ae9c06a3dd94820a00f8a6f.m3u8"


ffmpeg version 5.1.3-Jellyfin Copyright (c) 2000-2022 the FFmpeg developers
  built with gcc 11 (Ubuntu 11.4.0-1ubuntu1~22.04)
  configuration: --prefix=/usr/lib/jellyfin-ffmpeg --target-os=linux --extra-libs=-lfftw3f --extra-version=Jellyfin --disable-doc --disable-ffplay --disable-ptx-compression --disable-static --disable-libxcb --disable-sdl2 --disable-xlib --enable-lto --enable-gpl --enable-version3 --enable-shared --enable-gmp --enable-gnutls --enable-chromaprint --enable-libdrm --enable-libass --enable-libfreetype --enable-libfribidi --enable-libfontconfig --enable-libbluray --enable-libmp3lame --enable-libopus --enable-libtheora --enable-libvorbis --enable-libopenmpt --enable-libdav1d --enable-libwebp --enable-libvpx --enable-libx264 --enable-libx265 --enable-libzvbi --enable-libzimg --enable-libfdk-aac --toolchain=hardened --enable-cross-compile --arch=arm64 --cross-prefix=/usr/bin/aarch64-linux-gnu-
  libavutil      57. 28.100 / 57. 28.100
  libavcodec     59. 37.100 / 59. 37.100
  libavformat    59. 27.100 / 59. 27.100
  libavdevice    59.  7.100 / 59.  7.100
  libavfilter     8. 44.100 /  8. 44.100
  libswscale      6.  7.100 /  6.  7.100
  libswresample   4.  7.100 /  4.  7.100
  libpostproc    56.  6.100 / 56.  6.100
Input #0, mov,mp4,m4a,3gp,3g2,mj2, from 'file:/data/media/tv/Soundtrack (2022)/Season 1/Soundtrack.1.S01E01.KOREAN.1080p.WEBRip.x265-RARBG.mp4':
  Metadata:
    major_brand     : isom
    minor_version   : 512
    compatible_brands: isomiso2mp41
    creation_time   : 2022-04-14T14:39:12.000000Z
    title           : Soundtrack.1.S01E01.KOREAN.1080p.WEBRip.x265-RARBG
    encoder         : Lavf58.20.100
    comment         : Soundtrack.1.S01E01.KOREAN.1080p.WEBRip.x265-RARBG
  Duration: 00:43:03.85, start: 0.000000, bitrate: 2229 kb/s
  Stream #0:0[0x1](und): Video: hevc (Main 10) (hev1 / 0x31766568), yuv420p10le(tv), 1920x960 [SAR 1:1 DAR 2:1], 2000 kb/s, 23.98 fps, 23.98 tbr, 24k tbn (default)
    Metadata:
      creation_time   : 2022-04-14T14:39:12.000000Z
      handler_name    : VideoHandler
      vendor_id       : [0][0][0][0]
  Stream #0:1[0x2](kor): Audio: aac (LC) (mp4a / 0x6134706D), 48000 Hz, 5.1, fltp, 224 kb/s (default)
    Metadata:
      creation_time   : 2022-04-14T14:39:12.000000Z
      handler_name    : SoundHandler
      vendor_id       : [0][0][0][0]
Stream mapping:
  Stream #0:0 -> #0:0 (hevc (native) -> h264 (libx264))
  Stream #0:1 -> #0:1 (aac (native) -> aac (libfdk_aac))
Press [q] to stop, [?] for help
[libx264 @ 0x55c02c1480] using SAR=1/1
[libx264 @ 0x55c02c1480] using cpu capabilities: ARMv8 NEON
[libx264 @ 0x55c02c1480] profile Main, level 4.0, 4:2:0, 8-bit
[libx264 @ 0x55c02c1480] 264 - core 163 r3060 5db6aa6 - H.264/MPEG-4 AVC codec - Copyleft 2003-2021 - http://www.videolan.org/x264.html - options: cabac=1 ref=1 deblock=1:0:0 analyse=0x1:0 me=dia subme=0 psy=1 psy_rd=1.00:0.00 mixed_ref=0 me_range=4 chroma_me=0 trellis=0 8x8dct=0 cqm=0 deadzone=21,11 fast_pskip=1 chroma_qp_offset=0 threads=6 lookahead_threads=1 sliced_threads=0 nr=0 decimate=1 interlaced=0 bluray_compat=0 constrained_intra=0 bframes=3 b_pyramid=2 b_adapt=1 b_bias=0 direct=1 weightb=1 open_gop=0 weightp=1 keyint=250 keyint_min=23 scenecut=0 intra_refresh=0 rc_lookahead=10 rc=crf mbtree=1 crf=23.0 qcomp=0.60 qpmin=0 qpmax=69 qpstep=4 vbv_maxrate=6666 vbv_bufsize=13333 crf_max=0.0 nal_hrd=none filler=0 ip_ratio=1.40 aq=1:1.00
Output #0, hls, to '/config/data/transcodes/7825d04a3ae9c06a3dd94820a00f8a6f.m3u8':
  Metadata:
    encoder         : Lavf59.27.100
  Stream #0:0: Video: h264, yuv420p(tv, bt709, progressive), 1920x960 [SAR 1:1 DAR 2:1], q=2-31, 23.98 fps, 90k tbn (default)
    Metadata:
      encoder         : Lavc59.37.100 libx264
    Side data:
      cpb: bitrate max/min/avg: 6666000/0/0 buffer size: 13333000 vbv_delay: N/A
  Stream #0:1: Audio: aac, 48000 Hz, stereo, s16, 384 kb/s (default)
    Metadata:
      encoder         : Lavc59.37.100 libfdk_aac
frame=    1 fps=0.0 q=0.0 size=N/A time=00:00:00.00 bitrate=N/A speed=   0x    
frame=    9 fps=0.0 q=0.0 size=N/A time=00:00:00.36 bitrate=N/A speed=0.568x    
frame=   23 fps= 18 q=28.0 size=N/A time=00:00:00.93 bitrate=N/A speed=0.745x    
frame=   34 fps= 19 q=28.0 size=N/A time=00:00:01.40 bitrate=N/A speed=0.781x    
frame=   43 fps= 18 q=28.0 size=N/A time=00:00:01.77 bitrate=N/A speed=0.744x    
frame=   52 fps= 18 q=28.0 size=N/A time=00:00:02.15 bitrate=N/A speed=0.747x    
frame=   59 fps= 17 q=28.0 size=N/A time=00:00:02.45 bitrate=N/A speed=0.723x    
frame=   69 fps= 18 q=28.0 size=N/A time=00:00:02.83 bitrate=N/A speed=0.729x    
frame=   76 fps= 17 q=28.0 size=N/A time=00:00:03.13 bitrate=N/A speed=0.712x    
frame=   83 fps= 17 q=28.0 size=N/A time=00:00:03.45 bitrate=N/A speed=0.688x    
frame=   90 fps= 16 q=28.0 size=N/A time=00:00:03.73 bitrate=N/A speed=0.673x    
[hls @ 0x55c02c0ed0] Opening '/config/data/transcodes/7825d04a3ae9c06a3dd94820a00f8a6f0.ts' for writing
frame=   94 fps= 15 q=28.0 size=N/A time=00:00:03.90 bitrate=N/A speed=0.641x    
frame=  101 fps= 15 q=28.0 size=N/A time=00:00:04.20 bitrate=N/A speed=0.637x    
frame=  109 fps= 15 q=28.0 size=N/A time=00:00:04.52 bitrate=N/A speed=0.622x    
frame=  116 fps= 15 q=28.0 size=N/A time=00:00:04.82 bitrate=N/A speed=0.619x    
frame=  123 fps= 15 q=28.0 size=N/A time=00:00:05.12 bitrate=N/A speed=0.61x    
frame=  133 fps= 15 q=28.0 size=N/A time=00:00:05.52 bitrate=N/A speed=0.618x    
frame=  141 fps= 15 q=28.0 size=N/A time=00:00:05.86 bitrate=N/A speed=0.618x    
frame=  151 fps= 15 q=28.0 size=N/A time=00:00:06.29 bitrate=N/A speed=0.625x    
frame=  159 fps= 15 q=28.0 size=N/A time=00:00:06.61 bitrate=N/A speed=0.61x    
[hls @ 0x55c02c0ed0] Opening '/config/data/transcodes/7825d04a3ae9c06a3dd94820a00f8a6f1.ts' for writing
frame=  167 fps= 15 q=28.0 size=N/A time=00:00:06.95 bitrate=N/A speed=0.608x    
frame=  174 fps= 14 q=28.0 size=N/A time=00:00:07.25 bitrate=N/A speed=0.603x    
frame=  184 fps= 15 q=28.0 size=N/A time=00:00:07.65 bitrate=N/A speed=0.607x    
frame=  195 fps= 15 q=28.0 size=N/A time=00:00:08.12 bitrate=N/A speed=0.61x    
frame=  206 fps= 15 q=28.0 size=N/A time=00:00:08.57 bitrate=N/A speed=0.619x    
frame=  216 fps= 15 q=28.0 size=N/A time=00:00:09.00 bitrate=N/A speed=0.622x    
frame=  226 fps= 15 q=28.0 size=N/A time=00:00:09.40 bitrate=N/A speed=0.628x    
frame=  235 fps= 15 q=28.0 size=N/A time=00:00:09.79 bitrate=N/A speed=0.63x    
[hls @ 0x55c02c0ed0] Opening '/config/data/transcodes/7825d04a3ae9c06a3dd94820a00f8a6f2.ts' for writing
frame=  241 fps= 15 q=28.0 size=N/A time=00:00:10.02 bitrate=N/A speed=0.624x    
frame=  249 fps= 15 q=28.0 size=N/A time=00:00:10.36 bitrate=N/A speed=0.625x    
frame=  256 fps= 15 q=28.0 size=N/A time=00:00:10.66 bitrate=N/A speed=0.624x    
frame=  265 fps= 15 q=28.0 size=N/A time=00:00:11.02 bitrate=N/A speed=0.623x    
frame=  275 fps= 15 q=28.0 size=N/A time=00:00:11.45 bitrate=N/A speed=0.626x    
frame=  286 fps= 15 q=28.0 size=N/A time=00:00:11.92 bitrate=N/A speed=0.627x    
frame=  295 fps= 15 q=28.0 size=N/A time=00:00:12.28 bitrate=N/A speed=0.629x    
frame=  304 fps= 15 q=25.0 size=N/A time=00:00:12.67 bitrate=N/A speed=0.627x    
[hls @ 0x55c02c0ed0] Opening '/config/data/transcodes/7825d04a3ae9c06a3dd94820a00f8a6f3.ts' for writing
frame=  309 fps= 15 q=28.0 size=N/A time=00:00:12.86 bitrate=N/A speed=0.62x    
frame=  316 fps= 15 q=28.0 size=N/A time=00:00:13.16 bitrate=N/A speed=0.616x    
frame=  322 fps= 15 q=28.0 size=N/A time=00:00:13.41 bitrate=N/A speed=0.611x    
frame=  330 fps= 15 q=28.0 size=N/A time=00:00:13.76 bitrate=N/A speed=0.612x    
frame=  335 fps= 15 q=28.0 size=N/A time=00:00:13.95 bitrate=N/A speed=0.604x    
frame=  342 fps= 14 q=28.0 size=N/A time=00:00:14.25 bitrate=N/A speed=0.603x    
frame=  348 fps= 14 q=28.0 size=N/A time=00:00:14.52 bitrate=N/A speed=0.601x    
frame=  355 fps= 14 q=28.0 size=N/A time=00:00:14.78 bitrate=N/A speed=0.594x    
frame=  363 fps= 14 q=28.0 size=N/A time=00:00:15.12 bitrate=N/A speed=0.594x    
frame=  368 fps= 14 q=28.0 size=N/A time=00:00:15.33 bitrate=N/A speed=0.589x    
frame=  375 fps= 14 q=28.0 size=N/A time=00:00:15.63 bitrate=N/A speed=0.588x    
frame=  379 fps= 14 q=28.0 size=N/A time=00:00:15.78 bitrate=N/A speed=0.579x    
[hls @ 0x55c02c0ed0] Opening '/config/data/transcodes/7825d04a3ae9c06a3dd94820a00f8a6f4.ts' for writing
frame=  386 fps= 14 q=28.0 size=N/A time=00:00:16.08 bitrate=N/A speed=0.579x    
frame=  393 fps= 14 q=28.0 size=N/A time=00:00:16.38 bitrate=N/A speed=0.579x    
frame=  397 fps= 14 q=28.0 size=N/A time=00:00:16.55 bitrate=N/A speed=0.574x    
frame=  402 fps= 14 q=28.0 size=N/A time=00:00:16.74 bitrate=N/A speed=0.571x    
frame=  409 fps= 14 q=28.0 size=N/A time=00:00:17.04 bitrate=N/A speed=0.567x    
frame=  416 fps= 14 q=28.0 size=N/A time=00:00:17.34 bitrate=N/A speed=0.565x    
frame=  424 fps= 14 q=28.0 size=N/A time=00:00:17.66 bitrate=N/A speed=0.566x    
frame=  427 fps= 13 q=28.0 size=N/A time=00:00:17.79 bitrate=N/A speed=0.56x    
frame=  436 fps= 14 q=28.0 size=N/A time=00:00:18.17 bitrate=N/A speed=0.563x    
frame=  446 fps= 14 q=28.0 size=N/A time=00:00:18.58 bitrate=N/A speed=0.565x    
[hls @ 0x55c02c0ed0] Opening '/config/data/transcodes/7825d04a3ae9c06a3dd94820a00f8a6f5.ts' for writing
frame=  453 fps= 14 q=28.0 size=N/A time=00:00:18.88 bitrate=N/A speed=0.563x    
frame=  461 fps= 14 q=28.0 size=N/A time=00:00:19.22 bitrate=N/A speed=0.564x    
frame=  467 fps= 13 q=28.0 size=N/A time=00:00:19.45 bitrate=N/A speed=0.562x    
frame=  471 fps= 13 q=28.0 size=N/A time=00:00:19.62 bitrate=N/A speed=0.559x    
frame=  478 fps= 13 q=28.0 size=N/A time=00:00:19.92 bitrate=N/A speed=0.559x    
frame=  483 fps= 13 q=28.0 size=N/A time=00:00:20.13 bitrate=N/A speed=0.557x    
frame=  491 fps= 13 q=28.0 size=N/A time=00:00:20.45 bitrate=N/A speed=0.557x    
frame=  497 fps= 13 q=28.0 size=N/A time=00:00:20.71 bitrate=N/A speed=0.556x    
frame=  503 fps= 13 q=28.0 size=N/A time=00:00:20.97 bitrate=N/A speed=0.554x    
frame=  510 fps= 13 q=28.0 size=N/A time=00:00:21.24 bitrate=N/A speed=0.554x    
frame=  517 fps= 13 q=28.0 size=N/A time=00:00:21.54 bitrate=N/A speed=0.551x    
frame=  524 fps= 13 q=28.0 size=N/A time=00:00:21.84 bitrate=N/A speed=0.551x    
[hls @ 0x55c02c0ed0] Opening '/config/data/transcodes/7825d04a3ae9c06a3dd94820a00f8a6f6.ts' for writing
frame=  530 fps= 13 q=28.0 size=N/A time=00:00:22.10 bitrate=N/A speed=0.549x    
frame=  537 fps= 13 q=28.0 size=N/A time=00:00:22.37 bitrate=N/A speed=0.549x    
frame=  543 fps= 13 q=28.0 size=N/A time=00:00:22.63 bitrate=N/A speed=0.549x    
frame=  551 fps= 13 q=28.0 size=N/A time=00:00:22.97 bitrate=N/A speed=0.548x    
frame=  556 fps= 13 q=28.0 size=N/A time=00:00:23.16 bitrate=N/A speed=0.545x    
frame=  562 fps= 13 q=28.0 size=N/A time=00:00:23.42 bitrate=N/A speed=0.544x    
frame=  569 fps= 13 q=28.0 size=N/A time=00:00:23.72 bitrate=N/A speed=0.541x    
frame=  575 fps= 13 q=28.0 size=N/A time=00:00:23.97 bitrate=N/A speed=0.539x    
frame=  582 fps= 13 q=28.0 size=N/A time=00:00:24.25 bitrate=N/A speed=0.539x    
frame=  586 fps= 13 q=28.0 size=N/A time=00:00:24.42 bitrate=N/A speed=0.536x    
frame=  592 fps= 13 q=25.0 size=N/A time=00:00:24.66 bitrate=N/A speed=0.536x    
[hls @ 0x55c02c0ed0] Opening '/config/data/transcodes/7825d04a3ae9c06a3dd94820a00f8a6f7.ts' for writing
frame=  597 fps= 13 q=28.0 size=N/A time=00:00:24.89 bitrate=N/A speed=0.534x    
frame=  602 fps= 13 q=28.0 size=N/A time=00:00:25.08 bitrate=N/A speed=0.532x    
frame=  610 fps= 13 q=28.0 size=N/A time=00:00:25.42 bitrate=N/A speed=0.533x    
frame=  617 fps= 13 q=28.0 size=N/A time=00:00:25.72 bitrate=N/A speed=0.534x    
frame=  624 fps= 13 q=28.0 size=N/A time=00:00:26.00 bitrate=N/A speed=0.534x    
frame=  633 fps= 13 q=28.0 size=N/A time=00:00:26.38 bitrate=N/A speed=0.536x    
frame=  641 fps= 13 q=28.0 size=N/A time=00:00:26.73 bitrate=N/A speed=0.535x    
frame=  648 fps= 13 q=28.0 size=N/A time=00:00:27.00 bitrate=N/A speed=0.534x    
frame=  657 fps= 13 q=28.0 size=N/A time=00:00:27.39 bitrate=N/A speed=0.536x    
frame=  667 fps= 13 q=28.0 size=N/A time=00:00:27.79 bitrate=N/A speed=0.534x    
[hls @ 0x55c02c0ed0] Opening '/config/data/transcodes/7825d04a3ae9c06a3dd94820a00f8a6f8.ts' for writing
frame=  675 fps= 13 q=28.0 size=N/A time=00:00:28.13 bitrate=N/A speed=0.535x    
frame=  680 fps= 13 q=28.0 size=N/A time=00:00:28.35 bitrate=N/A speed=0.534x    
frame=  687 fps= 13 q=28.0 size=N/A time=00:00:28.65 bitrate=N/A speed=0.535x    
frame=  694 fps= 13 q=28.0 size=N/A time=00:00:28.92 bitrate=N/A speed=0.535x    
frame=  697 fps= 13 q=28.0 size=N/A time=00:00:29.05 bitrate=N/A speed=0.532x    
frame=  704 fps= 13 q=28.0 size=N/A time=00:00:29.35 bitrate=N/A speed=0.532x    
frame=  709 fps= 13 q=28.0 size=N/A time=00:00:29.56 bitrate=N/A speed=0.531x    
frame=  713 fps= 13 q=28.0 size=N/A time=00:00:29.71 bitrate=N/A speed=0.528x    
frame=  722 fps= 13 q=28.0 size=N/A time=00:00:30.12 bitrate=N/A speed=0.53x    
frame=  729 fps= 13 q=28.0 size=N/A time=00:00:30.40 bitrate=N/A speed=0.529x    
frame=  736 fps= 13 q=25.0 size=N/A time=00:00:30.67 bitrate=N/A speed=0.529x    
[hls @ 0x55c02c0ed0] Opening '/config/data/transcodes/7825d04a3ae9c06a3dd94820a00f8a6f9.ts' for writing
frame=  742 fps= 13 q=28.0 size=N/A time=00:00:30.93 bitrate=N/A speed=0.528x    
frame=  750 fps= 13 q=28.0 size=N/A time=00:00:31.27 bitrate=N/A speed=0.529x    
frame=  756 fps= 13 q=28.0 size=N/A time=00:00:31.50 bitrate=N/A speed=0.525x    
frame=  762 fps= 13 q=28.0 size=N/A time=00:00:31.76 bitrate=N/A speed=0.524x    
frame=  768 fps= 13 q=28.0 size=N/A time=00:00:32.02 bitrate=N/A speed=0.524x    
frame=  775 fps= 13 q=28.0 size=N/A time=00:00:32.32 bitrate=N/A speed=0.524x    
frame=  779 fps= 12 q=28.0 size=N/A time=00:00:32.46 bitrate=N/A speed=0.521x    
frame=  787 fps= 12 q=28.0 size=N/A time=00:00:32.81 bitrate=N/A speed=0.521x    
frame=  794 fps= 12 q=28.0 size=N/A time=00:00:33.10 bitrate=N/A speed=0.519x    
frame=  802 fps= 12 q=28.0 size=N/A time=00:00:33.42 bitrate=N/A speed=0.52x    
frame=  808 fps= 12 q=25.0 size=N/A time=00:00:33.68 bitrate=N/A speed=0.519x    
[hls @ 0x55c02c0ed0] Opening '/config/data/transcodes/7825d04a3ae9c06a3dd94820a00f8a6f10.ts' for writing
frame=  813 fps= 12 q=28.0 size=N/A time=00:00:33.89 bitrate=N/A speed=0.517x    
frame=  820 fps= 12 q=28.0 size=N/A time=00:00:34.19 bitrate=N/A speed=0.517x    
frame=  826 fps= 12 q=28.0 size=N/A time=00:00:34.43 bitrate=N/A speed=0.517x    
frame=  834 fps= 12 q=28.0 size=N/A time=00:00:34.77 bitrate=N/A speed=0.518x    
frame=  843 fps= 12 q=28.0 size=N/A time=00:00:35.13 bitrate=N/A speed=0.518x    
frame=  850 fps= 12 q=28.0 size=N/A time=00:00:35.43 bitrate=N/A speed=0.518x    
frame=  861 fps= 12 q=28.0 size=N/A time=00:00:35.90 bitrate=N/A speed=0.52x    
frame=  866 fps= 12 q=28.0 size=N/A time=00:00:36.11 bitrate=N/A speed=0.52x    
frame=  872 fps= 12 q=28.0 size=N/A time=00:00:36.35 bitrate=N/A speed=0.519x    
frame=  877 fps= 12 q=28.0 size=N/A time=00:00:36.56 bitrate=N/A speed=0.517x    
[hls @ 0x55c02c0ed0] Opening '/config/data/transcodes/7825d04a3ae9c06a3dd94820a00f8a6f11.ts' for writing
frame=  886 fps= 12 q=28.0 size=N/A time=00:00:36.94 bitrate=N/A speed=0.518x    
frame=  892 fps= 12 q=28.0 size=N/A time=00:00:37.18 bitrate=N/A speed=0.517x    
frame=  900 fps= 12 q=28.0 size=N/A time=00:00:37.52 bitrate=N/A speed=0.518x    
frame=  907 fps= 12 q=28.0 size=N/A time=00:00:37.82 bitrate=N/A speed=0.518x    
frame=  914 fps= 12 q=28.0 size=N/A time=00:00:38.10 bitrate=N/A speed=0.518x    
frame=  921 fps= 12 q=28.0 size=N/A time=00:00:38.40 bitrate=N/A speed=0.518x    
frame=  929 fps= 12 q=28.0 size=N/A time=00:00:38.72 bitrate=N/A speed=0.519x    
frame=  937 fps= 12 q=28.0 size=N/A time=00:00:39.06 bitrate=N/A speed=0.52x    
frame=  946 fps= 12 q=28.0 size=N/A time=00:00:39.44 bitrate=N/A speed=0.52x    
frame=  955 fps= 12 q=28.0 size=N/A time=00:00:39.80 bitrate=N/A speed=0.521x    
[hls @ 0x55c02c0ed0] Opening '/config/data/transcodes/7825d04a3ae9c06a3dd94820a00f8a6f12.ts' for writing
frame=  960 fps= 12 q=28.0 size=N/A time=00:00:40.04 bitrate=N/A speed=0.52x    
frame=  966 fps= 12 q=28.0 size=N/A time=00:00:40.27 bitrate=N/A speed=0.52x    
frame=  971 fps= 12 q=28.0 size=N/A time=00:00:40.49 bitrate=N/A speed=0.519x    
frame=  981 fps= 12 q=28.0 size=N/A time=00:00:40.89 bitrate=N/A speed=0.521x    
frame=  988 fps= 12 q=28.0 size=N/A time=00:00:41.19 bitrate=N/A speed=0.521x    
frame=  997 fps= 12 q=28.0 size=N/A time=00:00:41.57 bitrate=N/A speed=0.521x    
frame= 1004 fps= 12 q=28.0 size=N/A time=00:00:41.85 bitrate=N/A speed=0.521x    
frame= 1011 fps= 12 q=28.0 size=N/A time=00:00:42.15 bitrate=N/A speed=0.52x    
frame= 1018 fps= 12 q=28.0 size=N/A time=00:00:42.45 bitrate=N/A speed=0.521x    
frame= 1023 fps= 12 q=25.0 size=N/A time=00:00:42.64 bitrate=N/A speed=0.52x    
[hls @ 0x55c02c0ed0] Opening '/config/data/transcodes/7825d04a3ae9c06a3dd94820a00f8a6f13.ts' for writing
frame= 1031 fps= 12 q=28.0 size=N/A time=00:00:42.98 bitrate=N/A speed=0.521x    
frame= 1039 fps= 13 q=28.0 size=N/A time=00:00:43.32 bitrate=N/A speed=0.522x    
frame= 1046 fps= 13 q=28.0 size=N/A time=00:00:43.60 bitrate=N/A speed=0.521x    
frame= 1053 fps= 13 q=28.0 size=N/A time=00:00:43.90 bitrate=N/A speed=0.522x    
frame= 1061 fps= 12 q=28.0 size=N/A time=00:00:44.24 bitrate=N/A speed=0.521x    
frame= 1071 fps= 13 q=28.0 size=N/A time=00:00:44.65 bitrate=N/A speed=0.523x    
frame= 1076 fps= 13 q=28.0 size=N/A time=00:00:44.86 bitrate=N/A speed=0.522x    
frame= 1083 fps= 13 q=28.0 size=N/A time=00:00:45.16 bitrate=N/A speed=0.522x    
frame= 1090 fps= 13 q=28.0 size=N/A time=00:00:45.44 bitrate=N/A speed=0.522x    
[hls @ 0x55c02c0ed0] Opening '/config/data/transcodes/7825d04a3ae9c06a3dd94820a00f8a6f14.ts' for writing
frame= 1100 fps= 13 q=28.0 size=N/A time=00:00:45.86 bitrate=N/A speed=0.524x    
frame= 1109 fps= 13 q=28.0 size=N/A time=00:00:46.25 bitrate=N/A speed=0.525x    
frame= 1119 fps= 13 q=28.0 size=N/A time=00:00:46.65 bitrate=N/A speed=0.526x    
frame= 1128 fps= 13 q=28.0 size=N/A time=00:00:47.04 bitrate=N/A speed=0.528x    
frame= 1136 fps= 13 q=28.0 size=N/A time=00:00:47.36 bitrate=N/A speed=0.528x    
frame= 1148 fps= 13 q=28.0 size=N/A time=00:00:47.87 bitrate=N/A speed=0.53x    
frame= 1157 fps= 13 q=28.0 size=N/A time=00:00:48.23 bitrate=N/A speed=0.53x    
frame= 1166 fps= 13 q=28.0 size=N/A time=00:00:48.61 bitrate=N/A speed=0.531x    
[hls @ 0x55c02c0ed0] Opening '/config/data/transcodes/7825d04a3ae9c06a3dd94820a00f8a6f15.ts' for writing
frame= 1174 fps= 13 q=28.0 size=N/A time=00:00:48.96 bitrate=N/A speed=0.532x    
frame= 1183 fps= 13 q=28.0 size=N/A time=00:00:49.32 bitrate=N/A speed=0.532x    
frame= 1192 fps= 13 q=28.0 size=N/A time=00:00:49.70 bitrate=N/A speed=0.533x    
frame= 1198 fps= 13 q=28.0 size=N/A time=00:00:49.96 bitrate=N/A speed=0.532x    
frame= 1206 fps= 13 q=28.0 size=N/A time=00:00:50.30 bitrate=N/A speed=0.533x    
frame= 1213 fps= 13 q=28.0 size=N/A time=00:00:50.58 bitrate=N/A speed=0.533x    
frame= 1222 fps= 13 q=28.0 size=N/A time=00:00:50.94 bitrate=N/A speed=0.534x    
frame= 1231 fps= 13 q=28.0 size=N/A time=00:00:51.32 bitrate=N/A speed=0.535x    
frame= 1239 fps= 13 q=25.0 size=N/A time=00:00:51.66 bitrate=N/A speed=0.535x    
[hls @ 0x55c02c0ed0] Opening '/config/data/transcodes/7825d04a3ae9c06a3dd94820a00f8a6f16.ts' for writing
frame= 1247 fps= 13 q=28.0 size=N/A time=00:00:51.98 bitrate=N/A speed=0.535x    
frame= 1254 fps= 13 q=28.0 size=N/A time=00:00:52.28 bitrate=N/A speed=0.535x    
frame= 1263 fps= 13 q=28.0 size=N/A time=00:00:52.69 bitrate=N/A speed=0.537x    
frame= 1270 fps= 13 q=28.0 size=N/A time=00:00:52.94 bitrate=N/A speed=0.536x    
frame= 1275 fps= 13 q=28.0 size=N/A time=00:00:53.16 bitrate=N/A speed=0.536x    
frame= 1284 fps= 13 q=28.0 size=N/A time=00:00:53.54 bitrate=N/A speed=0.536x    
frame= 1292 fps= 13 q=28.0 size=N/A time=00:00:53.86 bitrate=N/A speed=0.536x    
frame= 1300 fps= 13 q=28.0 size=N/A time=00:00:54.20 bitrate=N/A speed=0.537x    
frame= 1306 fps= 13 q=28.0 size=N/A time=00:00:54.46 bitrate=N/A speed=0.537x    
frame= 1314 fps= 13 q=28.0 size=N/A time=00:00:54.78 bitrate=N/A speed=0.537x    
[hls @ 0x55c02c0ed0] Opening '/config/data/transcodes/7825d04a3ae9c06a3dd94820a00f8a6f17.ts' for writing
frame= 1320 fps= 13 q=28.0 size=N/A time=00:00:55.04 bitrate=N/A speed=0.537x    
frame= 1326 fps= 13 q=28.0 size=N/A time=00:00:55.29 bitrate=N/A speed=0.536x    
frame= 1334 fps= 13 q=28.0 size=N/A time=00:00:55.61 bitrate=N/A speed=0.536x    
frame= 1342 fps= 13 q=28.0 size=N/A time=00:00:55.95 bitrate=N/A speed=0.536x    
frame= 1350 fps= 13 q=28.0 size=N/A time=00:00:56.29 bitrate=N/A speed=0.537x    
frame= 1360 fps= 13 q=28.0 size=N/A time=00:00:56.70 bitrate=N/A speed=0.538x    
frame= 1369 fps= 13 q=28.0 size=N/A time=00:00:57.08 bitrate=N/A speed=0.539x    
frame= 1375 fps= 13 q=28.0 size=N/A time=00:00:57.34 bitrate=N/A speed=0.538x    
frame= 1381 fps= 13 q=28.0 size=N/A time=00:00:57.57 bitrate=N/A speed=0.538x    
frame= 1387 fps= 13 q=28.0 size=N/A time=00:00:57.83 bitrate=N/A speed=0.538x    
[hls @ 0x55c02c0ed0] Opening '/config/data/transcodes/7825d04a3ae9c06a3dd94820a00f8a6f18.ts' for writing
frame= 1393 fps= 13 q=28.0 size=N/A time=00:00:58.09 bitrate=N/A speed=0.537x    
frame= 1399 fps= 13 q=28.0 size=N/A time=00:00:58.34 bitrate=N/A speed=0.536x    
frame= 1408 fps= 13 q=28.0 size=N/A time=00:00:58.70 bitrate=N/A speed=0.536x    
frame= 1413 fps= 13 q=28.0 size=N/A time=00:00:58.92 bitrate=N/A speed=0.535x    
frame= 1420 fps= 13 q=28.0 size=N/A time=00:00:59.22 bitrate=N/A speed=0.535x    
frame= 1426 fps= 13 q=28.0 size=N/A time=00:00:59.45 bitrate=N/A speed=0.534x    
frame= 1431 fps= 13 q=28.0 size=N/A time=00:00:59.66 bitrate=N/A speed=0.533x    
frame= 1437 fps= 13 q=28.0 size=N/A time=00:00:59.92 bitrate=N/A speed=0.533x    
frame= 1446 fps= 13 q=28.0 size=N/A time=00:01:00.28 bitrate=N/A speed=0.533x    
frame= 1454 fps= 13 q=28.0 size=N/A time=00:01:00.62 bitrate=N/A speed=0.534x    
[hls @ 0x55c02c0ed0] Opening '/config/data/transcodes/7825d04a3ae9c06a3dd94820a00f8a6f19.ts' for writing
frame= 1462 fps= 13 q=28.0 size=N/A time=00:01:00.97 bitrate=N/A speed=0.534x    
frame= 1473 fps= 13 q=28.0 size=N/A time=00:01:01.44 bitrate=N/A speed=0.536x    
frame= 1482 fps= 13 q=28.0 size=N/A time=00:01:01.80 bitrate=N/A speed=0.536x    
frame= 1493 fps= 13 q=28.0 size=N/A time=00:01:02.25 bitrate=N/A speed=0.537x    
frame= 1504 fps= 13 q=28.0 size=N/A time=00:01:02.72 bitrate=N/A speed=0.539x    
frame= 1512 fps= 13 q=28.0 size=N/A time=00:01:03.04 bitrate=N/A speed=0.539x    
frame= 1520 fps= 13 q=28.0 size=N/A time=00:01:03.38 bitrate=N/A speed=0.539x    
frame= 1529 fps= 13 q=28.0 size=N/A time=00:01:03.74 bitrate=N/A speed=0.54x    
[hls @ 0x55c02c0ed0] Opening '/config/data/transcodes/7825d04a3ae9c06a3dd94820a00f8a6f20.ts' for writing
frame= 1538 fps= 13 q=28.0 size=N/A time=00:01:04.12 bitrate=N/A speed=0.541x    
frame= 1544 fps= 13 q=28.0 size=N/A time=00:01:04.38 bitrate=N/A speed=0.54x    
frame= 1553 fps= 13 q=28.0 size=N/A time=00:01:04.76 bitrate=N/A speed=0.541x    
frame= 1562 fps= 13 q=28.0 size=N/A time=00:01:05.13 bitrate=N/A speed=0.541x    
frame= 1569 fps= 13 q=28.0 size=N/A time=00:01:05.42 bitrate=N/A speed=0.54x    
frame= 1573 fps= 13 q=28.0 size=N/A time=00:01:05.60 bitrate=N/A speed=0.539x    
frame= 1581 fps= 13 q=28.0 size=N/A time=00:01:05.92 bitrate=N/A speed=0.54x    
frame= 1587 fps= 13 q=28.0 size=N/A time=00:01:06.17 bitrate=N/A speed=0.539x    
frame= 1597 fps= 13 q=28.0 size=N/A time=00:01:06.60 bitrate=N/A speed=0.54x    
frame= 1602 fps= 13 q=28.0 size=N/A time=00:01:06.79 bitrate=N/A speed=0.539x    
[hls @ 0x55c02c0ed0] Opening '/config/data/transcodes/7825d04a3ae9c06a3dd94820a00f8a6f21.ts' for writing
frame= 1606 fps= 13 q=28.0 size=N/A time=00:01:06.96 bitrate=N/A speed=0.538x    
frame= 1612 fps= 13 q=28.0 size=N/A time=00:01:07.22 bitrate=N/A speed=0.538x    
frame= 1616 fps= 13 q=28.0 size=N/A time=00:01:07.39 bitrate=N/A speed=0.537x    
frame= 1620 fps= 13 q=28.0 size=N/A time=00:01:07.56 bitrate=N/A speed=0.536x    
frame= 1626 fps= 13 q=28.0 size=N/A time=00:01:07.79 bitrate=N/A speed=0.534x    
frame= 1632 fps= 13 q=28.0 size=N/A time=00:01:08.05 bitrate=N/A speed=0.533x    
frame= 1636 fps= 13 q=28.0 size=N/A time=00:01:08.22 bitrate=N/A speed=0.532x    
frame= 1642 fps= 13 q=28.0 size=N/A time=00:01:08.48 bitrate=N/A speed=0.531x    
frame= 1647 fps= 13 q=28.0 size=N/A time=00:01:08.69 bitrate=N/A speed=0.53x    
frame= 1651 fps= 13 q=28.0 size=N/A time=00:01:08.84 bitrate=N/A speed=0.529x    
frame= 1656 fps= 13 q=28.0 size=N/A time=00:01:09.05 bitrate=N/A speed=0.528x    
frame= 1661 fps= 13 q=28.0 size=N/A time=00:01:09.26 bitrate=N/A speed=0.528x    
frame= 1664 fps= 13 q=28.0 size=N/A time=00:01:09.39 bitrate=N/A speed=0.526x    
frame= 1671 fps= 13 q=25.0 size=N/A time=00:01:09.67 bitrate=N/A speed=0.526x    
[hls @ 0x55c02c0ed0] Opening '/config/data/transcodes/7825d04a3ae9c06a3dd94820a00f8a6f22.ts' for writing
frame= 1676 fps= 13 q=28.0 size=N/A time=00:01:09.88 bitrate=N/A speed=0.525x    
frame= 1682 fps= 13 q=28.0 size=N/A time=00:01:10.14 bitrate=N/A speed=0.525x    
frame= 1686 fps= 13 q=28.0 size=N/A time=00:01:10.31 bitrate=N/A speed=0.524x    
frame= 1689 fps= 13 q=28.0 size=N/A time=00:01:10.42 bitrate=N/A speed=0.523x    
frame= 1695 fps= 13 q=28.0 size=N/A time=00:01:10.67 bitrate=N/A speed=0.522x    
frame= 1700 fps= 13 q=28.0 size=N/A time=00:01:10.89 bitrate=N/A speed=0.522x    
frame= 1707 fps= 13 q=28.0 size=N/A time=00:01:11.18 bitrate=N/A speed=0.522x    
frame= 1712 fps= 12 q=28.0 size=N/A time=00:01:11.38 bitrate=N/A speed=0.521x    
frame= 1719 fps= 12 q=28.0 size=N/A time=00:01:11.68 bitrate=N/A speed=0.521x    
frame= 1725 fps= 12 q=28.0 size=N/A time=00:01:11.93 bitrate=N/A speed=0.52x    
frame= 1730 fps= 12 q=28.0 size=N/A time=00:01:12.14 bitrate=N/A speed=0.52x    
frame= 1738 fps= 12 q=28.0 size=N/A time=00:01:12.46 bitrate=N/A speed=0.52x    
frame= 1744 fps= 12 q=28.0 size=N/A time=00:01:12.72 bitrate=N/A speed=0.52x    
frame= 1746 fps= 12 q=28.0 size=N/A time=00:01:12.81 bitrate=N/A speed=0.518x    
[hls @ 0x55c02c0ed0] Opening '/config/data/transcodes/7825d04a3ae9c06a3dd94820a00f8a6f23.ts' for writing
frame= 1752 fps= 12 q=28.0 size=N/A time=00:01:13.06 bitrate=N/A speed=0.518x    
frame= 1761 fps= 12 q=28.0 size=N/A time=00:01:13.42 bitrate=N/A speed=0.518x    
frame= 1769 fps= 12 q=28.0 size=N/A time=00:01:13.77 bitrate=N/A speed=0.519x    
frame= 1776 fps= 12 q=28.0 size=N/A time=00:01:14.06 bitrate=N/A speed=0.518x    
frame= 1782 fps= 12 q=28.0 size=N/A time=00:01:14.30 bitrate=N/A speed=0.518x    
frame= 1790 fps= 12 q=28.0 size=N/A time=00:01:14.64 bitrate=N/A speed=0.518x    
frame= 1795 fps= 12 q=28.0 size=N/A time=00:01:14.85 bitrate=N/A speed=0.517x    
frame= 1800 fps= 12 q=28.0 size=N/A time=00:01:15.07 bitrate=N/A speed=0.517x    
frame= 1807 fps= 12 q=28.0 size=N/A time=00:01:15.34 bitrate=N/A speed=0.517x    
frame= 1815 fps= 12 q=25.0 size=N/A time=00:01:15.69 bitrate=N/A speed=0.517x    
[hls @ 0x55c02c0ed0] Opening '/config/data/transcodes/7825d04a3ae9c06a3dd94820a00f8a6f24.ts' for writing
frame= 1821 fps= 12 q=28.0 size=N/A time=00:01:15.94 bitrate=N/A speed=0.517x    
frame= 1828 fps= 12 q=28.0 size=N/A time=00:01:16.22 bitrate=N/A speed=0.516x    
frame= 1834 fps= 12 q=28.0 size=N/A time=00:01:16.48 bitrate=N/A speed=0.516x    
frame= 1841 fps= 12 q=28.0 size=N/A time=00:01:16.77 bitrate=N/A speed=0.516x    
frame= 1846 fps= 12 q=28.0 size=N/A time=00:01:16.97 bitrate=N/A speed=0.514x    
frame= 1854 fps= 12 q=28.0 size=N/A time=00:01:17.31 bitrate=N/A speed=0.514x    
frame= 1859 fps= 12 q=28.0 size=N/A time=00:01:17.52 bitrate=N/A speed=0.514x    
frame= 1865 fps= 12 q=28.0 size=N/A time=00:01:17.78 bitrate=N/A speed=0.514x    
frame= 1871 fps= 12 q=28.0 size=N/A time=00:01:18.01 bitrate=N/A speed=0.513x    
frame= 1879 fps= 12 q=28.0 size=N/A time=00:01:18.33 bitrate=N/A speed=0.514x    
frame= 1885 fps= 12 q=28.0 size=N/A time=00:01:18.61 bitrate=N/A speed=0.514x    
[hls @ 0x55c02c0ed0] Opening '/config/data/transcodes/7825d04a3ae9c06a3dd94820a00f8a6f25.ts' for writing
frame= 1892 fps= 12 q=28.0 size=N/A time=00:01:18.89 bitrate=N/A speed=0.514x    
frame= 1896 fps= 12 q=28.0 size=N/A time=00:01:19.06 bitrate=N/A speed=0.513x    
frame= 1904 fps= 12 q=28.0 size=N/A time=00:01:19.40 bitrate=N/A speed=0.513x    
frame= 1911 fps= 12 q=28.0 size=N/A time=00:01:19.70 bitrate=N/A speed=0.513x    
frame= 1917 fps= 12 q=28.0 size=N/A time=00:01:19.93 bitrate=N/A speed=0.513x    
frame= 1922 fps= 12 q=28.0 size=N/A time=00:01:20.14 bitrate=N/A speed=0.512x    
frame= 1926 fps= 12 q=28.0 size=N/A time=00:01:20.32 bitrate=N/A speed=0.511x    
frame= 1932 fps= 12 q=28.0 size=N/A time=00:01:20.57 bitrate=N/A speed=0.511x    
frame= 1936 fps= 12 q=28.0 size=N/A time=00:01:20.72 bitrate=N/A speed=0.51x    
frame= 1944 fps= 12 q=28.0 size=N/A time=00:01:21.06 bitrate=N/A speed=0.511x    
frame= 1950 fps= 12 q=28.0 size=N/A time=00:01:21.32 bitrate=N/A speed=0.51x    
frame= 1957 fps= 12 q=28.0 size=N/A time=00:01:21.60 bitrate=N/A speed=0.51x    
[hls @ 0x55c02c0ed0] Opening '/config/data/transcodes/7825d04a3ae9c06a3dd94820a00f8a6f26.ts' for writing
frame= 1964 fps= 12 q=28.0 size=N/A time=00:01:21.89 bitrate=N/A speed=0.509x    
frame= 1970 fps= 12 q=28.0 size=N/A time=00:01:22.15 bitrate=N/A speed=0.509x    
frame= 1975 fps= 12 q=28.0 size=N/A time=00:01:22.36 bitrate=N/A speed=0.509x    
frame= 1979 fps= 12 q=28.0 size=N/A time=00:01:22.51 bitrate=N/A speed=0.508x    
frame= 1984 fps= 12 q=28.0 size=N/A time=00:01:22.73 bitrate=N/A speed=0.507x    
frame= 1988 fps= 12 q=28.0 size=N/A time=00:01:22.90 bitrate=N/A speed=0.506x    
frame= 1994 fps= 12 q=28.0 size=N/A time=00:01:23.15 bitrate=N/A speed=0.505x    
frame= 2000 fps= 12 q=28.0 size=N/A time=00:01:23.41 bitrate=N/A speed=0.505x    
frame= 2005 fps= 12 q=28.0 size=N/A time=00:01:23.60 bitrate=N/A speed=0.505x    
frame= 2011 fps= 12 q=28.0 size=N/A time=00:01:23.86 bitrate=N/A speed=0.505x    
frame= 2014 fps= 12 q=28.0 size=N/A time=00:01:24.01 bitrate=N/A speed=0.504x    
frame= 2019 fps= 12 q=28.0 size=N/A time=00:01:24.20 bitrate=N/A speed=0.503x    
frame= 2024 fps= 12 q=28.0 size=N/A time=00:01:24.39 bitrate=N/A speed=0.502x    
frame= 2030 fps= 12 q=25.0 size=N/A time=00:01:24.65 bitrate=N/A speed=0.502x    
[hls @ 0x55c02c0ed0] Opening '/config/data/transcodes/7825d04a3ae9c06a3dd94820a00f8a6f27.ts' for writing
frame= 2036 fps= 12 q=28.0 size=N/A time=00:01:24.90 bitrate=N/A speed=0.502x    
frame= 2041 fps= 12 q=28.0 size=N/A time=00:01:25.12 bitrate=N/A speed=0.501x    
frame= 2050 fps= 12 q=28.0 size=N/A time=00:01:25.48 bitrate=N/A speed=0.502x    
frame= 2054 fps= 12 q=28.0 size=N/A time=00:01:25.65 bitrate=N/A speed=0.501x    
frame= 2057 fps= 12 q=28.0 size=N/A time=00:01:25.78 bitrate=N/A speed=0.501x    
frame= 2065 fps= 12 q=28.0 size=N/A time=00:01:26.10 bitrate=N/A speed=0.501x    
frame= 2068 fps= 12 q=28.0 size=N/A time=00:01:26.22 bitrate=N/A speed= 0.5x    
frame= 2074 fps= 12 q=28.0 size=N/A time=00:01:26.48 bitrate=N/A speed=0.499x    
frame= 2079 fps= 12 q=28.0 size=N/A time=00:01:26.69 bitrate=N/A speed=0.499x    
frame= 2086 fps= 12 q=28.0 size=N/A time=00:01:27.01 bitrate=N/A speed=0.499x    
frame= 2090 fps= 12 q=28.0 size=N/A time=00:01:27.14 bitrate=N/A speed=0.498x    
frame= 2097 fps= 12 q=28.0 size=N/A time=00:01:27.44 bitrate=N/A speed=0.498x    
frame= 2100 fps= 12 q=28.0 size=N/A time=00:01:27.57 bitrate=N/A speed=0.497x    
[hls @ 0x55c02c0ed0] Opening '/config/data/transcodes/7825d04a3ae9c06a3dd94820a00f8a6f28.ts' for writing
frame= 2107 fps= 12 q=28.0 size=N/A time=00:01:27.87 bitrate=N/A speed=0.496x    
frame= 2113 fps= 12 q=28.0 size=N/A time=00:01:28.10 bitrate=N/A speed=0.496x    
frame= 2118 fps= 12 q=28.0 size=N/A time=00:01:28.32 bitrate=N/A speed=0.495x    
frame= 2124 fps= 12 q=28.0 size=N/A time=00:01:28.57 bitrate=N/A speed=0.495x    
frame= 2129 fps= 12 q=28.0 size=N/A time=00:01:28.78 bitrate=N/A speed=0.495x    
frame= 2133 fps= 12 q=28.0 size=N/A time=00:01:28.98 bitrate=N/A speed=0.495x    
frame= 2139 fps= 12 q=28.0 size=N/A time=00:01:29.19 bitrate=N/A speed=0.494x    
frame= 2147 fps= 12 q=28.0 size=N/A time=00:01:29.53 bitrate=N/A speed=0.495x    
frame= 2152 fps= 12 q=28.0 size=N/A time=00:01:29.74 bitrate=N/A speed=0.494x    
frame= 2160 fps= 12 q=28.0 size=N/A time=00:01:30.06 bitrate=N/A speed=0.495x    
frame= 2167 fps= 12 q=28.0 size=N/A time=00:01:30.36 bitrate=N/A speed=0.494x    
frame= 2177 fps= 12 q=28.0 size=N/A time=00:01:30.79 bitrate=N/A speed=0.495x    
[hls @ 0x55c02c0ed0] Opening '/config/data/transcodes/7825d04a3ae9c06a3dd94820a00f8a6f29.ts' for writing
frame= 2179 fps= 12 q=28.0 size=N/A time=00:01:30.85 bitrate=N/A speed=0.494x    
frame= 2185 fps= 12 q=28.0 size=N/A time=00:01:31.11 bitrate=N/A speed=0.494x    
frame= 2193 fps= 12 q=28.0 size=N/A time=00:01:31.45 bitrate=N/A speed=0.494x    
frame= 2201 fps= 12 q=28.0 size=N/A time=00:01:31.79 bitrate=N/A speed=0.494x    
frame= 2205 fps= 12 q=28.0 size=N/A time=00:01:31.94 bitrate=N/A speed=0.493x    
frame= 2213 fps= 12 q=28.0 size=N/A time=00:01:32.28 bitrate=N/A speed=0.494x    
frame= 2220 fps= 12 q=28.0 size=N/A time=00:01:32.58 bitrate=N/A speed=0.494x    
frame= 2227 fps= 12 q=28.0 size=N/A time=00:01:32.86 bitrate=N/A speed=0.494x    
frame= 2232 fps= 12 q=28.0 size=N/A time=00:01:33.07 bitrate=N/A speed=0.493x    
frame= 2240 fps= 12 q=28.0 size=N/A time=00:01:33.41 bitrate=N/A speed=0.493x    
frame= 2246 fps= 12 q=25.0 size=N/A time=00:01:33.65 bitrate=N/A speed=0.493x    
[hls @ 0x55c02c0ed0] Opening '/config/data/transcodes/7825d04a3ae9c06a3dd94820a00f8a6f30.ts' for writing
frame= 2252 fps= 12 q=28.0 size=N/A time=00:01:33.90 bitrate=N/A speed=0.493x    
frame= 2261 fps= 12 q=28.0 size=N/A time=00:01:34.29 bitrate=N/A speed=0.493x    
frame= 2265 fps= 12 q=28.0 size=N/A time=00:01:34.46 bitrate=N/A speed=0.493x    
frame= 2273 fps= 12 q=28.0 size=N/A time=00:01:34.78 bitrate=N/A speed=0.492x    
frame= 2282 fps= 12 q=28.0 size=N/A time=00:01:35.16 bitrate=N/A speed=0.493x    
frame= 2290 fps= 12 q=28.0 size=N/A time=00:01:35.48 bitrate=N/A speed=0.493x    
frame= 2297 fps= 12 q=28.0 size=N/A time=00:01:35.78 bitrate=N/A speed=0.493x    
frame= 2302 fps= 12 q=28.0 size=N/A time=00:01:35.97 bitrate=N/A speed=0.493x    
frame= 2306 fps= 12 q=28.0 size=N/A time=00:01:36.14 bitrate=N/A speed=0.492x    
frame= 2315 fps= 12 q=28.0 size=N/A time=00:01:36.53 bitrate=N/A speed=0.493x    
frame= 2319 fps= 12 q=28.0 size=N/A time=00:01:36.70 bitrate=N/A speed=0.493x    
[hls @ 0x55c02c0ed0] Opening '/config/data/transcodes/7825d04a3ae9c06a3dd94820a00f8a6f31.ts' for writing
frame= 2323 fps= 12 q=28.0 size=N/A time=00:01:36.87 bitrate=N/A speed=0.492x    
frame= 2330 fps= 12 q=28.0 size=N/A time=00:01:37.17 bitrate=N/A speed=0.492x    
frame= 2337 fps= 12 q=28.0 size=N/A time=00:01:37.45 bitrate=N/A speed=0.492x    
frame= 2345 fps= 12 q=28.0 size=N/A time=00:01:37.79 bitrate=N/A speed=0.492x    
frame= 2352 fps= 12 q=28.0 size=N/A time=00:01:38.09 bitrate=N/A speed=0.493x    
frame= 2358 fps= 12 q=28.0 size=N/A time=00:01:38.32 bitrate=N/A speed=0.493x    
frame= 2364 fps= 12 q=28.0 size=N/A time=00:01:38.58 bitrate=N/A speed=0.492x    
frame= 2370 fps= 12 q=28.0 size=N/A time=00:01:38.83 bitrate=N/A speed=0.492x    
frame= 2379 fps= 12 q=28.0 size=N/A time=00:01:39.20 bitrate=N/A speed=0.493x    
frame= 2386 fps= 12 q=28.0 size=N/A time=00:01:39.49 bitrate=N/A speed=0.493x    
frame= 2394 fps= 12 q=28.0 size=N/A time=00:01:39.84 bitrate=N/A speed=0.493x    
[hls @ 0x55c02c0ed0] Opening '/config/data/transcodes/7825d04a3ae9c06a3dd94820a00f8a6f32.ts' for writing
frame= 2398 fps= 12 q=28.0 size=N/A time=00:01:40.01 bitrate=N/A speed=0.493x    
frame= 2406 fps= 12 q=28.0 size=N/A time=00:01:40.33 bitrate=N/A speed=0.493x    
frame= 2413 fps= 12 q=28.0 size=N/A time=00:01:40.65 bitrate=N/A speed=0.494x    
frame= 2422 fps= 12 q=28.0 size=N/A time=00:01:41.01 bitrate=N/A speed=0.494x    
frame= 2429 fps= 12 q=28.0 size=N/A time=00:01:41.29 bitrate=N/A speed=0.494x    
frame= 2438 fps= 12 q=28.0 size=N/A time=00:01:41.67 bitrate=N/A speed=0.495x    
frame= 2445 fps= 12 q=28.0 size=N/A time=00:01:41.97 bitrate=N/A speed=0.495x    
frame= 2451 fps= 12 q=28.0 size=N/A time=00:01:42.22 bitrate=N/A speed=0.495x    
frame= 2458 fps= 12 q=28.0 size=N/A time=00:01:42.50 bitrate=N/A speed=0.495x    
frame= 2463 fps= 12 q=28.0 size=N/A time=00:01:42.72 bitrate=N/A speed=0.495x    
[hls @ 0x55c02c0ed0] Opening '/config/data/transcodes/7825d04a3ae9c06a3dd94820a00f8a6f33.ts' for writing
frame= 2470 fps= 12 q=28.0 size=N/A time=00:01:42.99 bitrate=N/A speed=0.495x    
frame= 2476 fps= 12 q=28.0 size=N/A time=00:01:43.25 bitrate=N/A speed=0.495x    
frame= 2479 fps= 12 q=28.0 size=N/A time=00:01:43.38 bitrate=N/A speed=0.494x    
frame= 2487 fps= 12 q=28.0 size=N/A time=00:01:43.72 bitrate=N/A speed=0.495x    
frame= 2494 fps= 12 q=28.0 size=N/A time=00:01:44.00 bitrate=N/A speed=0.495x    
frame= 2503 fps= 12 q=28.0 size=N/A time=00:01:44.38 bitrate=N/A speed=0.495x    
frame= 2510 fps= 12 q=28.0 size=N/A time=00:01:44.68 bitrate=N/A speed=0.495x    
frame= 2516 fps= 12 q=28.0 size=N/A time=00:01:44.91 bitrate=N/A speed=0.495x    
frame= 2524 fps= 12 q=28.0 size=N/A time=00:01:45.25 bitrate=N/A speed=0.495x    
frame= 2529 fps= 12 q=28.0 size=N/A time=00:01:45.47 bitrate=N/A speed=0.495x    
frame= 2537 fps= 12 q=28.0 size=N/A time=00:01:45.79 bitrate=N/A speed=0.495x    
[hls @ 0x55c02c0ed0] Opening '/config/data/transcodes/7825d04a3ae9c06a3dd94820a00f8a6f34.ts' for writing
frame= 2541 fps= 12 q=28.0 size=N/A time=00:01:45.96 bitrate=N/A speed=0.494x    
frame= 2549 fps= 12 q=28.0 size=N/A time=00:01:46.30 bitrate=N/A speed=0.494x    
frame= 2556 fps= 12 q=28.0 size=N/A time=00:01:46.60 bitrate=N/A speed=0.493x    
frame= 2565 fps= 12 q=28.0 size=N/A time=00:01:46.96 bitrate=N/A speed=0.494x    
frame= 2573 fps= 12 q=28.0 size=N/A time=00:01:47.30 bitrate=N/A speed=0.494x    
frame= 2580 fps= 12 q=28.0 size=N/A time=00:01:47.58 bitrate=N/A speed=0.494x    
frame= 2587 fps= 12 q=28.0 size=N/A time=00:01:47.88 bitrate=N/A speed=0.494x    
frame= 2596 fps= 12 q=28.0 size=N/A time=00:01:48.26 bitrate=N/A speed=0.495x    
frame= 2603 fps= 12 q=28.0 size=N/A time=00:01:48.54 bitrate=N/A speed=0.495x    
frame= 2608 fps= 12 q=28.0 size=N/A time=00:01:48.75 bitrate=N/A speed=0.495x    
[hls @ 0x55c02c0ed0] Opening '/config/data/transcodes/7825d04a3ae9c06a3dd94820a00f8a6f35.ts' for writing
frame= 2611 fps= 12 q=28.0 size=N/A time=00:01:48.88 bitrate=N/A speed=0.494x    
frame= 2617 fps= 12 q=28.0 size=N/A time=00:01:49.14 bitrate=N/A speed=0.494x    
frame= 2626 fps= 12 q=28.0 size=N/A time=00:01:49.50 bitrate=N/A speed=0.494x    
frame= 2635 fps= 12 q=28.0 size=N/A time=00:01:49.88 bitrate=N/A speed=0.495x    
frame= 2642 fps= 12 q=28.0 size=N/A time=00:01:50.18 bitrate=N/A speed=0.494x    
frame= 2648 fps= 12 q=28.0 size=N/A time=00:01:50.42 bitrate=N/A speed=0.494x    
frame= 2654 fps= 12 q=28.0 size=N/A time=00:01:50.67 bitrate=N/A speed=0.494x    
frame= 2661 fps= 12 q=28.0 size=N/A time=00:01:50.97 bitrate=N/A speed=0.494x    
frame= 2667 fps= 12 q=28.0 size=N/A time=00:01:51.23 bitrate=N/A speed=0.494x    
frame= 2672 fps= 12 q=28.0 size=N/A time=00:01:51.42 bitrate=N/A speed=0.493x    
frame= 2679 fps= 12 q=28.0 size=N/A time=00:01:51.72 bitrate=N/A speed=0.494x    
[hls @ 0x55c02c0ed0] Opening '/config/data/transcodes/7825d04a3ae9c06a3dd94820a00f8a6f36.ts' for writing
frame= 2683 fps= 12 q=28.0 size=N/A time=00:01:51.89 bitrate=N/A speed=0.493x    
frame= 2690 fps= 12 q=28.0 size=N/A time=00:01:52.19 bitrate=N/A speed=0.493x    
frame= 2697 fps= 12 q=28.0 size=N/A time=00:01:52.46 bitrate=N/A speed=0.493x    
frame= 2702 fps= 12 q=28.0 size=N/A time=00:01:52.68 bitrate=N/A speed=0.493x    
frame= 2708 fps= 12 q=28.0 size=N/A time=00:01:52.93 bitrate=N/A speed=0.493x    
frame= 2713 fps= 12 q=28.0 size=N/A time=00:01:53.13 bitrate=N/A speed=0.492x    
frame= 2721 fps= 12 q=28.0 size=N/A time=00:01:53.47 bitrate=N/A speed=0.493x    
frame= 2729 fps= 12 q=28.0 size=N/A time=00:01:53.81 bitrate=N/A speed=0.493x    
frame= 2737 fps= 12 q=28.0 size=N/A time=00:01:54.13 bitrate=N/A speed=0.493x    
frame= 2744 fps= 12 q=28.0 size=N/A time=00:01:54.43 bitrate=N/A speed=0.493x    
frame= 2751 fps= 12 q=28.0 size=N/A time=00:01:54.73 bitrate=N/A speed=0.493x    
[hls @ 0x55c02c0ed0] Opening '/config/data/transcodes/7825d04a3ae9c06a3dd94820a00f8a6f37.ts' for writing
frame= 2755 fps= 12 q=28.0 size=N/A time=00:01:54.92 bitrate=N/A speed=0.493x    
frame= 2763 fps= 12 q=28.0 size=N/A time=00:01:55.22 bitrate=N/A speed=0.493x    
frame= 2771 fps= 12 q=28.0 size=N/A time=00:01:55.56 bitrate=N/A speed=0.494x    
frame= 2780 fps= 12 q=28.0 size=N/A time=00:01:55.92 bitrate=N/A speed=0.494x    
frame= 2787 fps= 12 q=28.0 size=N/A time=00:01:56.22 bitrate=N/A speed=0.494x    
frame= 2793 fps= 12 q=28.0 size=N/A time=00:01:56.48 bitrate=N/A speed=0.494x    
frame= 2799 fps= 12 q=28.0 size=N/A time=00:01:56.73 bitrate=N/A speed=0.494x    
frame= 2808 fps= 12 q=28.0 size=N/A time=00:01:57.09 bitrate=N/A speed=0.494x    
frame= 2812 fps= 12 q=28.0 size=N/A time=00:01:57.26 bitrate=N/A speed=0.494x    
frame= 2820 fps= 12 q=28.0 size=N/A time=00:01:57.61 bitrate=N/A speed=0.493x    
[hls @ 0x55c02c0ed0] Opening '/config/data/transcodes/7825d04a3ae9c06a3dd94820a00f8a6f38.ts' for writing
frame= 2827 fps= 12 q=28.0 size=N/A time=00:01:57.88 bitrate=N/A speed=0.493x    
frame= 2833 fps= 12 q=28.0 size=N/A time=00:01:58.14 bitrate=N/A speed=0.493x    
frame= 2836 fps= 12 q=28.0 size=N/A time=00:01:58.27 bitrate=N/A speed=0.493x    
frame= 2842 fps= 12 q=28.0 size=N/A time=00:01:58.52 bitrate=N/A speed=0.493x    
frame= 2850 fps= 12 q=28.0 size=N/A time=00:01:58.84 bitrate=N/A speed=0.493x    
frame= 2857 fps= 12 q=28.0 size=N/A time=00:01:59.14 bitrate=N/A speed=0.493x    
frame= 2870 fps= 12 q=28.0 size=N/A time=00:01:59.68 bitrate=N/A speed=0.494x    
frame= 2879 fps= 12 q=28.0 size=N/A time=00:02:00.06 bitrate=N/A speed=0.494x    
frame= 2887 fps= 12 q=28.0 size=N/A time=00:02:00.40 bitrate=N/A speed=0.494x    
frame= 2894 fps= 12 q=25.0 size=N/A time=00:02:00.70 bitrate=N/A speed=0.495x    
[hls @ 0x55c02c0ed0] Opening '/config/data/transcodes/7825d04a3ae9c06a3dd94820a00f8a6f39.ts' for writing
frame= 2900 fps= 12 q=28.0 size=N/A time=00:02:00.93 bitrate=N/A speed=0.494x    
frame= 2909 fps= 12 q=28.0 size=N/A time=00:02:01.32 bitrate=N/A speed=0.495x    
frame= 2915 fps= 12 q=28.0 size=N/A time=00:02:01.55 bitrate=N/A speed=0.495x    
frame= 2923 fps= 12 q=28.0 size=N/A time=00:02:01.89 bitrate=N/A speed=0.495x    
frame= 2929 fps= 12 q=28.0 size=N/A time=00:02:02.15 bitrate=N/A speed=0.495x    
frame= 2937 fps= 12 q=28.0 size=N/A time=00:02:02.47 bitrate=N/A speed=0.495x    
frame= 2943 fps= 12 q=28.0 size=N/A time=00:02:02.73 bitrate=N/A speed=0.495x    
frame= 2949 fps= 12 q=28.0 size=N/A time=00:02:02.98 bitrate=N/A speed=0.495x    
frame= 2957 fps= 12 q=28.0 size=N/A time=00:02:03.32 bitrate=N/A speed=0.495x    
frame= 2962 fps= 12 q=28.0 size=N/A time=00:02:03.52 bitrate=N/A speed=0.495x    
[hls @ 0x55c02c0ed0] Opening '/config/data/transcodes/7825d04a3ae9c06a3dd94820a00f8a6f40.ts' for writing
frame= 2971 fps= 12 q=28.0 size=N/A time=00:02:03.90 bitrate=N/A speed=0.495x    
frame= 2979 fps= 12 q=28.0 size=N/A time=00:02:04.24 bitrate=N/A speed=0.495x    
frame= 2984 fps= 12 q=28.0 size=N/A time=00:02:04.43 bitrate=N/A speed=0.495x    
frame= 2992 fps= 12 q=28.0 size=N/A time=00:02:04.77 bitrate=N/A speed=0.495x    
frame= 2996 fps= 12 q=28.0 size=N/A time=00:02:04.94 bitrate=N/A speed=0.494x    
frame= 3005 fps= 12 q=28.0 size=N/A time=00:02:05.31 bitrate=N/A speed=0.494x    
frame= 3012 fps= 12 q=28.0 size=N/A time=00:02:05.61 bitrate=N/A speed=0.494x    
frame= 3017 fps= 12 q=28.0 size=N/A time=00:02:05.82 bitrate=N/A speed=0.494x    
frame= 3024 fps= 12 q=28.0 size=N/A time=00:02:06.12 bitrate=N/A speed=0.494x    
frame= 3030 fps= 12 q=28.0 size=N/A time=00:02:06.35 bitrate=N/A speed=0.494x    
frame= 3038 fps= 12 q=28.0 size=N/A time=00:02:06.69 bitrate=N/A speed=0.494x    
[hls @ 0x55c02c0ed0] Opening '/config/data/transcodes/7825d04a3ae9c06a3dd94820a00f8a6f41.ts' for writing
frame= 3042 fps= 12 q=28.0 size=N/A time=00:02:06.86 bitrate=N/A speed=0.493x    
frame= 3049 fps= 12 q=28.0 size=N/A time=00:02:07.14 bitrate=N/A speed=0.493x    
frame= 3055 fps= 12 q=28.0 size=N/A time=00:02:07.40 bitrate=N/A speed=0.493x    
frame= 3062 fps= 12 q=28.0 size=N/A time=00:02:07.70 bitrate=N/A speed=0.493x    
frame= 3067 fps= 12 q=28.0 size=N/A time=00:02:07.91 bitrate=N/A speed=0.493x    
frame= 3074 fps= 12 q=28.0 size=N/A time=00:02:08.19 bitrate=N/A speed=0.493x    
frame= 3077 fps= 12 q=28.0 size=N/A time=00:02:08.32 bitrate=N/A speed=0.492x    
frame= 3083 fps= 12 q=28.0 size=N/A time=00:02:08.57 bitrate=N/A speed=0.492x    
frame= 3090 fps= 12 q=28.0 size=N/A time=00:02:08.85 bitrate=N/A speed=0.493x    
frame= 3095 fps= 12 q=28.0 size=N/A time=00:02:09.06 bitrate=N/A speed=0.492x    
frame= 3101 fps= 12 q=28.0 size=N/A time=00:02:09.32 bitrate=N/A speed=0.492x    
frame= 3109 fps= 12 q=25.0 size=N/A time=00:02:09.66 bitrate=N/A speed=0.492x    
[hls @ 0x55c02c0ed0] Opening '/config/data/transcodes/7825d04a3ae9c06a3dd94820a00f8a6f42.ts' for writing
frame= 3114 fps= 12 q=28.0 size=N/A time=00:02:09.85 bitrate=N/A speed=0.492x    
frame= 3121 fps= 12 q=28.0 size=N/A time=00:02:10.15 bitrate=N/A speed=0.492x    
frame= 3124 fps= 12 q=28.0 size=N/A time=00:02:10.28 bitrate=N/A speed=0.492x    
frame= 3131 fps= 12 q=28.0 size=N/A time=00:02:10.58 bitrate=N/A speed=0.492x    
frame= 3136 fps= 12 q=28.0 size=N/A time=00:02:10.77 bitrate=N/A speed=0.491x    
frame= 3142 fps= 12 q=28.0 size=N/A time=00:02:11.02 bitrate=N/A speed=0.491x    
frame= 3148 fps= 12 q=28.0 size=N/A time=00:02:11.28 bitrate=N/A speed=0.491x    
frame= 3157 fps= 12 q=28.0 size=N/A time=00:02:11.66 bitrate=N/A speed=0.491x    
frame= 3163 fps= 12 q=28.0 size=N/A time=00:02:11.90 bitrate=N/A speed=0.491x    
frame= 3169 fps= 12 q=28.0 size=N/A time=00:02:12.18 bitrate=N/A speed=0.491x    
frame= 3177 fps= 12 q=28.0 size=N/A time=00:02:12.50 bitrate=N/A speed=0.491x    
frame= 3181 fps= 12 q=25.0 size=N/A time=00:02:12.65 bitrate=N/A speed=0.491x    
[hls @ 0x55c02c0ed0] Opening '/config/data/transcodes/7825d04a3ae9c06a3dd94820a00f8a6f43.ts' for writing
frame= 3188 fps= 12 q=28.0 size=N/A time=00:02:12.94 bitrate=N/A speed=0.491x    
frame= 3191 fps= 12 q=28.0 size=N/A time=00:02:13.07 bitrate=N/A speed=0.491x    
frame= 3197 fps= 12 q=28.0 size=N/A time=00:02:13.33 bitrate=N/A speed=0.491x    
frame= 3203 fps= 12 q=28.0 size=N/A time=00:02:13.56 bitrate=N/A speed=0.49x    
frame= 3209 fps= 12 q=28.0 size=N/A time=00:02:13.82 bitrate=N/A speed=0.49x    
frame= 3215 fps= 12 q=28.0 size=N/A time=00:02:14.08 bitrate=N/A speed=0.49x    
frame= 3223 fps= 12 q=28.0 size=N/A time=00:02:14.42 bitrate=N/A speed=0.491x    
frame= 3229 fps= 12 q=28.0 size=N/A time=00:02:14.65 bitrate=N/A speed=0.49x    
frame= 3237 fps= 12 q=28.0 size=N/A time=00:02:14.99 bitrate=N/A speed=0.491x    
frame= 3242 fps= 12 q=28.0 size=N/A time=00:02:15.21 bitrate=N/A speed=0.491x    
frame= 3249 fps= 12 q=28.0 size=N/A time=00:02:15.48 bitrate=N/A speed=0.491x    
frame= 3254 fps= 12 q=28.0 size=N/A time=00:02:15.70 bitrate=N/A speed=0.49x    
[hls @ 0x55c02c0ed0] Opening '/config/data/transcodes/7825d04a3ae9c06a3dd94820a00f8a6f44.ts' for writing
frame= 3263 fps= 12 q=28.0 size=N/A time=00:02:16.08 bitrate=N/A speed=0.491x    
frame= 3267 fps= 12 q=28.0 size=N/A time=00:02:16.25 bitrate=N/A speed=0.491x    
frame= 3276 fps= 12 q=28.0 size=N/A time=00:02:16.61 bitrate=N/A speed=0.491x    
frame= 3286 fps= 12 q=28.0 size=N/A time=00:02:17.04 bitrate=N/A speed=0.491x    
frame= 3291 fps= 12 q=28.0 size=N/A time=00:02:17.25 bitrate=N/A speed=0.491x    
frame= 3298 fps= 12 q=28.0 size=N/A time=00:02:17.53 bitrate=N/A speed=0.491x    
frame= 3307 fps= 12 q=28.0 size=N/A time=00:02:17.92 bitrate=N/A speed=0.491x    
frame= 3317 fps= 12 q=28.0 size=N/A time=00:02:18.32 bitrate=N/A speed=0.492x    
frame= 3322 fps= 12 q=28.0 size=N/A time=00:02:18.53 bitrate=N/A speed=0.492x    
[hls @ 0x55c02c0ed0] Opening '/config/data/transcodes/7825d04a3ae9c06a3dd94820a00f8a6f45.ts' for writing
frame= 3331 fps= 12 q=28.0 size=N/A time=00:02:18.92 bitrate=N/A speed=0.492x    
frame= 3340 fps= 12 q=28.0 size=N/A time=00:02:19.28 bitrate=N/A speed=0.492x    
frame= 3348 fps= 12 q=28.0 size=N/A time=00:02:19.62 bitrate=N/A speed=0.492x    
frame= 3354 fps= 12 q=28.0 size=N/A time=00:02:19.88 bitrate=N/A speed=0.492x    
frame= 3362 fps= 12 q=28.0 size=N/A time=00:02:20.20 bitrate=N/A speed=0.492x    
frame= 3367 fps= 12 q=28.0 size=N/A time=00:02:20.41 bitrate=N/A speed=0.492x    
frame= 3372 fps= 12 q=28.0 size=N/A time=00:02:20.62 bitrate=N/A speed=0.492x    
frame= 3378 fps= 12 q=28.0 size=N/A time=00:02:20.88 bitrate=N/A speed=0.492x    
frame= 3384 fps= 12 q=28.0 size=N/A time=00:02:21.12 bitrate=N/A speed=0.491x    
frame= 3390 fps= 12 q=28.0 size=N/A time=00:02:21.37 bitrate=N/A speed=0.491x    
frame= 3399 fps= 12 q=28.0 size=N/A time=00:02:21.76 bitrate=N/A speed=0.491x    
[hls @ 0x55c02c0ed0] Opening '/config/data/transcodes/7825d04a3ae9c06a3dd94820a00f8a6f46.ts' for writing
frame= 3408 fps= 12 q=28.0 size=N/A time=00:02:22.12 bitrate=N/A speed=0.492x    
frame= 3414 fps= 12 q=28.0 size=N/A time=00:02:22.40 bitrate=N/A speed=0.492x    
frame= 3423 fps= 12 q=28.0 size=N/A time=00:02:22.76 bitrate=N/A speed=0.492x    
frame= 3428 fps= 12 q=28.0 size=N/A time=00:02:22.95 bitrate=N/A speed=0.492x    
frame= 3436 fps= 12 q=28.0 size=N/A time=00:02:23.29 bitrate=N/A speed=0.492x    
frame= 3442 fps= 12 q=28.0 size=N/A time=00:02:23.55 bitrate=N/A speed=0.492x    
frame= 3450 fps= 12 q=28.0 size=N/A time=00:02:23.87 bitrate=N/A speed=0.492x    
frame= 3456 fps= 12 q=28.0 size=N/A time=00:02:24.10 bitrate=N/A speed=0.492x    
frame= 3465 fps= 12 q=28.0 size=N/A time=00:02:24.51 bitrate=N/A speed=0.493x    
frame= 3470 fps= 12 q=28.0 size=N/A time=00:02:24.70 bitrate=N/A speed=0.492x    
[hls @ 0x55c02c0ed0] Opening '/config/data/transcodes/7825d04a3ae9c06a3dd94820a00f8a6f47.ts' for writing
frame= 3478 fps= 12 q=28.0 size=N/A time=00:02:25.04 bitrate=N/A speed=0.493x    
frame= 3483 fps= 12 q=28.0 size=N/A time=00:02:25.25 bitrate=N/A speed=0.493x    
frame= 3490 fps= 12 q=28.0 size=N/A time=00:02:25.57 bitrate=N/A speed=0.493x    
frame= 3499 fps= 12 q=28.0 size=N/A time=00:02:25.92 bitrate=N/A speed=0.493x    
frame= 3506 fps= 12 q=28.0 size=N/A time=00:02:26.21 bitrate=N/A speed=0.493x    
frame= 3513 fps= 12 q=28.0 size=N/A time=00:02:26.51 bitrate=N/A speed=0.493x    
frame= 3519 fps= 12 q=28.0 size=N/A time=00:02:26.75 bitrate=N/A speed=0.493x    
frame= 3526 fps= 12 q=28.0 size=N/A time=00:02:27.05 bitrate=N/A speed=0.493x    
frame= 3534 fps= 12 q=28.0 size=N/A time=00:02:27.39 bitrate=N/A speed=0.493x    
frame= 3541 fps= 12 q=25.0 size=N/A time=00:02:27.66 bitrate=N/A speed=0.493x    
[hls @ 0x55c02c0ed0] Opening '/config/data/transcodes/7825d04a3ae9c06a3dd94820a00f8a6f48.ts' for writing
frame= 3547 fps= 12 q=28.0 size=N/A time=00:02:27.92 bitrate=N/A speed=0.493x    
frame= 3554 fps= 12 q=28.0 size=N/A time=00:02:28.22 bitrate=N/A speed=0.493x    
frame= 3560 fps= 12 q=28.0 size=N/A time=00:02:28.45 bitrate=N/A speed=0.493x    
frame= 3569 fps= 12 q=28.0 size=N/A time=00:02:28.84 bitrate=N/A speed=0.493x    
frame= 3574 fps= 12 q=28.0 size=N/A time=00:02:29.05 bitrate=N/A speed=0.493x    
frame= 3579 fps= 12 q=28.0 size=N/A time=00:02:29.26 bitrate=N/A speed=0.492x    
frame= 3587 fps= 12 q=28.0 size=N/A time=00:02:29.58 bitrate=N/A speed=0.492x    
frame= 3594 fps= 12 q=28.0 size=N/A time=00:02:29.88 bitrate=N/A speed=0.493x    
frame= 3600 fps= 12 q=28.0 size=N/A time=00:02:30.14 bitrate=N/A speed=0.492x    
frame= 3607 fps= 12 q=28.0 size=N/A time=00:02:30.42 bitrate=N/A speed=0.493x    
frame= 3612 fps= 12 q=28.0 size=N/A time=00:02:30.63 bitrate=N/A speed=0.492x    
[hls @ 0x55c02c0ed0] Opening '/config/data/transcodes/7825d04a3ae9c06a3dd94820a00f8a6f49.ts' for writing
frame= 3618 fps= 12 q=28.0 size=N/A time=00:02:30.89 bitrate=N/A speed=0.492x    
frame= 3626 fps= 12 q=28.0 size=N/A time=00:02:31.21 bitrate=N/A speed=0.492x    
frame= 3634 fps= 12 q=28.0 size=N/A time=00:02:31.55 bitrate=N/A speed=0.492x    
frame= 3641 fps= 12 q=28.0 size=N/A time=00:02:31.85 bitrate=N/A speed=0.492x    
frame= 3646 fps= 12 q=28.0 size=N/A time=00:02:32.06 bitrate=N/A speed=0.492x    
frame= 3652 fps= 12 q=28.0 size=N/A time=00:02:32.29 bitrate=N/A speed=0.492x    
frame= 3659 fps= 12 q=28.0 size=N/A time=00:02:32.59 bitrate=N/A speed=0.492x    
frame= 3665 fps= 12 q=28.0 size=N/A time=00:02:32.85 bitrate=N/A speed=0.492x    
frame= 3672 fps= 12 q=28.0 size=N/A time=00:02:33.13 bitrate=N/A speed=0.491x    
frame= 3680 fps= 12 q=28.0 size=N/A time=00:02:33.47 bitrate=N/A speed=0.491x    
frame= 3688 fps= 12 q=28.0 size=N/A time=00:02:33.81 bitrate=N/A speed=0.491x    
[hls @ 0x55c02c0ed0] Opening '/config/data/transcodes/7825d04a3ae9c06a3dd94820a00f8a6f50.ts' for writing
frame= 3691 fps= 12 q=28.0 size=N/A time=00:02:33.94 bitrate=N/A speed=0.491x    
frame= 3698 fps= 12 q=28.0 size=N/A time=00:02:34.21 bitrate=N/A speed=0.491x    
frame= 3706 fps= 12 q=28.0 size=N/A time=00:02:34.56 bitrate=N/A speed=0.491x    
frame= 3712 fps= 12 q=28.0 size=N/A time=00:02:34.81 bitrate=N/A speed=0.491x    
frame= 3717 fps= 12 q=28.0 size=N/A time=00:02:35.00 bitrate=N/A speed=0.491x    
frame= 3725 fps= 12 q=28.0 size=N/A time=00:02:35.34 bitrate=N/A speed=0.491x    
frame= 3730 fps= 12 q=28.0 size=N/A time=00:02:35.56 bitrate=N/A speed=0.491x    
frame= 3738 fps= 12 q=28.0 size=N/A time=00:02:35.88 bitrate=N/A speed=0.491x    
frame= 3745 fps= 12 q=28.0 size=N/A time=00:02:36.18 bitrate=N/A speed=0.491x    
frame= 3752 fps= 12 q=28.0 size=N/A time=00:02:36.48 bitrate=N/A speed=0.491x    
frame= 3758 fps= 12 q=28.0 size=N/A time=00:02:36.73 bitrate=N/A speed=0.491x    
[hls @ 0x55c02c0ed0] Opening '/config/data/transcodes/7825d04a3ae9c06a3dd94820a00f8a6f51.ts' for writing
frame= 3766 fps= 12 q=28.0 size=N/A time=00:02:37.07 bitrate=N/A speed=0.492x    
frame= 3774 fps= 12 q=28.0 size=N/A time=00:02:37.37 bitrate=N/A speed=0.492x    
frame= 3778 fps= 12 q=28.0 size=N/A time=00:02:37.56 bitrate=N/A speed=0.492x    
frame= 3784 fps= 12 q=28.0 size=N/A time=00:02:37.78 bitrate=N/A speed=0.492x    
frame= 3790 fps= 12 q=28.0 size=N/A time=00:02:38.05 bitrate=N/A speed=0.492x    
frame= 3798 fps= 12 q=28.0 size=N/A time=00:02:38.40 bitrate=N/A speed=0.492x    
frame= 3804 fps= 12 q=28.0 size=N/A time=00:02:38.63 bitrate=N/A speed=0.492x    
frame= 3813 fps= 12 q=28.0 size=N/A time=00:02:39.01 bitrate=N/A speed=0.492x    
frame= 3819 fps= 12 q=28.0 size=N/A time=00:02:39.27 bitrate=N/A speed=0.492x    
frame= 3826 fps= 12 q=28.0 size=N/A time=00:02:39.55 bitrate=N/A speed=0.492x    
[hls @ 0x55c02c0ed0] Opening '/config/data/transcodes/7825d04a3ae9c06a3dd94820a00f8a6f52.ts' for writing
frame= 3835 fps= 12 q=28.0 size=N/A time=00:02:39.93 bitrate=N/A speed=0.492x    
frame= 3840 fps= 12 q=28.0 size=N/A time=00:02:40.14 bitrate=N/A speed=0.492x    
frame= 3846 fps= 12 q=28.0 size=N/A time=00:02:40.40 bitrate=N/A speed=0.492x    
frame= 3851 fps= 12 q=28.0 size=N/A time=00:02:40.59 bitrate=N/A speed=0.492x    
frame= 3856 fps= 12 q=28.0 size=N/A time=00:02:40.81 bitrate=N/A speed=0.492x    
frame= 3863 fps= 12 q=28.0 size=N/A time=00:02:41.10 bitrate=N/A speed=0.492x    
frame= 3871 fps= 12 q=28.0 size=N/A time=00:02:41.42 bitrate=N/A speed=0.492x    
frame= 3878 fps= 12 q=28.0 size=N/A time=00:02:41.72 bitrate=N/A speed=0.492x    
frame= 3885 fps= 12 q=28.0 size=N/A time=00:02:42.02 bitrate=N/A speed=0.492x    
frame= 3889 fps= 12 q=28.0 size=N/A time=00:02:42.19 bitrate=N/A speed=0.492x    
frame= 3895 fps= 12 q=28.0 size=N/A time=00:02:42.43 bitrate=N/A speed=0.492x    
frame= 3902 fps= 12 q=28.0 size=N/A time=00:02:42.73 bitrate=N/A speed=0.492x    
[hls @ 0x55c02c0ed0] Opening '/config/data/transcodes/7825d04a3ae9c06a3dd94820a00f8a6f53.ts' for writing
frame= 3909 fps= 12 q=28.0 size=N/A time=00:02:43.02 bitrate=N/A speed=0.492x    
frame= 3915 fps= 12 q=28.0 size=N/A time=00:02:43.26 bitrate=N/A speed=0.492x    
frame= 3922 fps= 12 q=28.0 size=N/A time=00:02:43.56 bitrate=N/A speed=0.492x    
frame= 3931 fps= 12 q=28.0 size=N/A time=00:02:43.94 bitrate=N/A speed=0.492x    
frame= 3936 fps= 12 q=28.0 size=N/A time=00:02:44.16 bitrate=N/A speed=0.492x    
frame= 3941 fps= 12 q=28.0 size=N/A time=00:02:44.35 bitrate=N/A speed=0.492x    
frame= 3948 fps= 12 q=28.0 size=N/A time=00:02:44.65 bitrate=N/A speed=0.492x    
frame= 3954 fps= 12 q=28.0 size=N/A time=00:02:44.90 bitrate=N/A speed=0.492x    
frame= 3963 fps= 12 q=28.0 size=N/A time=00:02:45.26 bitrate=N/A speed=0.492x    
frame= 3973 fps= 12 q=25.0 size=N/A time=00:02:45.69 bitrate=N/A speed=0.492x    
[hls @ 0x55c02c0ed0] Opening '/config/data/transcodes/7825d04a3ae9c06a3dd94820a00f8a6f54.ts' for writing
frame= 3979 fps= 12 q=28.0 size=N/A time=00:02:45.95 bitrate=N/A speed=0.492x    
frame= 3988 fps= 12 q=28.0 size=N/A time=00:02:46.31 bitrate=N/A speed=0.492x    
frame= 3995 fps= 12 q=28.0 size=N/A time=00:02:46.61 bitrate=N/A speed=0.492x    
frame= 4001 fps= 12 q=28.0 size=N/A time=00:02:46.86 bitrate=N/A speed=0.492x    
frame= 4007 fps= 12 q=28.0 size=N/A time=00:02:47.10 bitrate=N/A speed=0.492x    
frame= 4013 fps= 12 q=28.0 size=N/A time=00:02:47.36 bitrate=N/A speed=0.492x    
frame= 4021 fps= 12 q=28.0 size=N/A time=00:02:47.70 bitrate=N/A speed=0.492x    
frame= 4027 fps= 12 q=28.0 size=N/A time=00:02:47.93 bitrate=N/A speed=0.492x    
frame= 4034 fps= 12 q=28.0 size=N/A time=00:02:48.23 bitrate=N/A speed=0.492x    
frame= 4043 fps= 12 q=28.0 size=N/A time=00:02:48.61 bitrate=N/A speed=0.493x    
[hls @ 0x55c02c0ed0] Opening '/config/data/transcodes/7825d04a3ae9c06a3dd94820a00f8a6f55.ts' for writing
frame= 4049 fps= 12 q=28.0 size=N/A time=00:02:48.85 bitrate=N/A speed=0.492x    
frame= 4055 fps= 12 q=28.0 size=N/A time=00:02:49.10 bitrate=N/A speed=0.492x    
frame= 4062 fps= 12 q=28.0 size=N/A time=00:02:49.40 bitrate=N/A speed=0.492x    
frame= 4070 fps= 12 q=28.0 size=N/A time=00:02:49.74 bitrate=N/A speed=0.492x    
frame= 4076 fps= 12 q=28.0 size=N/A time=00:02:49.98 bitrate=N/A speed=0.492x    
frame= 4083 fps= 12 q=28.0 size=N/A time=00:02:50.28 bitrate=N/A speed=0.493x    
frame= 4089 fps= 12 q=28.0 size=N/A time=00:02:50.53 bitrate=N/A speed=0.493x    
frame= 4096 fps= 12 q=28.0 size=N/A time=00:02:50.81 bitrate=N/A speed=0.493x    
frame= 4103 fps= 12 q=28.0 size=N/A time=00:02:51.11 bitrate=N/A speed=0.493x    
frame= 4108 fps= 12 q=28.0 size=N/A time=00:02:51.32 bitrate=N/A speed=0.492x    
frame= 4116 fps= 12 q=25.0 size=N/A time=00:02:51.64 bitrate=N/A speed=0.493x    
[hls @ 0x55c02c0ed0] Opening '/config/data/transcodes/7825d04a3ae9c06a3dd94820a00f8a6f56.ts' for writing
frame= 4123 fps= 12 q=28.0 size=N/A time=00:02:51.94 bitrate=N/A speed=0.493x    
frame= 4130 fps= 12 q=28.0 size=N/A time=00:02:52.24 bitrate=N/A speed=0.493x    
frame= 4137 fps= 12 q=28.0 size=N/A time=00:02:52.54 bitrate=N/A speed=0.493x    
frame= 4144 fps= 12 q=28.0 size=N/A time=00:02:52.82 bitrate=N/A speed=0.493x    
frame= 4152 fps= 12 q=28.0 size=N/A time=00:02:53.16 bitrate=N/A speed=0.493x    
frame= 4159 fps= 12 q=28.0 size=N/A time=00:02:53.46 bitrate=N/A speed=0.493x    
frame= 4165 fps= 12 q=28.0 size=N/A time=00:02:53.69 bitrate=N/A speed=0.493x    
frame= 4171 fps= 12 q=28.0 size=N/A time=00:02:53.95 bitrate=N/A speed=0.493x    
frame= 4179 fps= 12 q=28.0 size=N/A time=00:02:54.27 bitrate=N/A speed=0.493x    
frame= 4185 fps= 12 q=28.0 size=N/A time=00:02:54.52 bitrate=N/A speed=0.493x    
[hls @ 0x55c02c0ed0] Opening '/config/data/transcodes/7825d04a3ae9c06a3dd94820a00f8a6f57.ts' for writing
frame= 4193 fps= 12 q=28.0 size=N/A time=00:02:54.86 bitrate=N/A speed=0.493x    
frame= 4201 fps= 12 q=28.0 size=N/A time=00:02:55.21 bitrate=N/A speed=0.493x    
frame= 4206 fps= 12 q=28.0 size=N/A time=00:02:55.40 bitrate=N/A speed=0.493x    
frame= 4214 fps= 12 q=28.0 size=N/A time=00:02:55.74 bitrate=N/A speed=0.493x    
frame= 4219 fps= 12 q=28.0 size=N/A time=00:02:55.95 bitrate=N/A speed=0.493x    
frame= 4225 fps= 12 q=28.0 size=N/A time=00:02:56.21 bitrate=N/A speed=0.493x    
frame= 4232 fps= 12 q=28.0 size=N/A time=00:02:56.49 bitrate=N/A speed=0.493x    
frame= 4238 fps= 12 q=28.0 size=N/A time=00:02:56.74 bitrate=N/A speed=0.493x    
frame= 4245 fps= 12 q=28.0 size=N/A time=00:02:57.04 bitrate=N/A speed=0.493x    
frame= 4252 fps= 12 q=28.0 size=N/A time=00:02:57.32 bitrate=N/A speed=0.493x    
frame= 4259 fps= 12 q=28.0 size=N/A time=00:02:57.62 bitrate=N/A speed=0.493x    
frame= 4263 fps= 12 q=28.0 size=N/A time=00:02:57.79 bitrate=N/A speed=0.493x    
[hls @ 0x55c02c0ed0] Opening '/config/data/transcodes/7825d04a3ae9c06a3dd94820a00f8a6f58.ts' for writing
frame= 4269 fps= 12 q=28.0 size=N/A time=00:02:58.04 bitrate=N/A speed=0.493x    
frame= 4275 fps= 12 q=28.0 size=N/A time=00:02:58.28 bitrate=N/A speed=0.492x    
frame= 4282 fps= 12 q=28.0 size=N/A time=00:02:58.56 bitrate=N/A speed=0.492x    
frame= 4288 fps= 12 q=28.0 size=N/A time=00:02:58.83 bitrate=N/A speed=0.492x    
frame= 4294 fps= 12 q=28.0 size=N/A time=00:02:59.07 bitrate=N/A speed=0.492x    
frame= 4302 fps= 12 q=28.0 size=N/A time=00:02:59.41 bitrate=N/A speed=0.493x    
frame= 4307 fps= 12 q=28.0 size=N/A time=00:02:59.62 bitrate=N/A speed=0.492x    
frame= 4311 fps= 12 q=28.0 size=N/A time=00:02:59.79 bitrate=N/A speed=0.492x    
frame= 4318 fps= 12 q=28.0 size=N/A time=00:03:00.07 bitrate=N/A speed=0.492x    
frame= 4323 fps= 12 q=28.0 size=N/A time=00:03:00.28 bitrate=N/A speed=0.492x    
frame= 4330 fps= 12 q=28.0 size=N/A time=00:03:00.58 bitrate=N/A speed=0.492x    
frame= 4335 fps= 12 q=28.0 size=N/A time=00:03:00.80 bitrate=N/A speed=0.492x    
[hls @ 0x55c02c0ed0] Opening '/config/data/transcodes/7825d04a3ae9c06a3dd94820a00f8a6f59.ts' for writing
frame= 4342 fps= 12 q=28.0 size=N/A time=00:03:01.07 bitrate=N/A speed=0.492x    
frame= 4347 fps= 12 q=28.0 size=N/A time=00:03:01.29 bitrate=N/A speed=0.492x    
frame= 4357 fps= 12 q=28.0 size=N/A time=00:03:01.71 bitrate=N/A speed=0.492x    
frame= 4363 fps= 12 q=28.0 size=N/A time=00:03:01.95 bitrate=N/A speed=0.492x    
frame= 4370 fps= 12 q=28.0 size=N/A time=00:03:02.25 bitrate=N/A speed=0.492x    
frame= 4378 fps= 12 q=28.0 size=N/A time=00:03:02.59 bitrate=N/A speed=0.492x    
frame= 4386 fps= 12 q=28.0 size=N/A time=00:03:02.91 bitrate=N/A speed=0.492x    
frame= 4392 fps= 12 q=28.0 size=N/A time=00:03:03.16 bitrate=N/A speed=0.492x    
frame= 4398 fps= 12 q=28.0 size=N/A time=00:03:03.42 bitrate=N/A speed=0.492x    
frame= 4404 fps= 12 q=25.0 size=N/A time=00:03:03.68 bitrate=N/A speed=0.492x    
[hls @ 0x55c02c0ed0] Opening '/config/data/transcodes/7825d04a3ae9c06a3dd94820a00f8a6f60.ts' for writing
frame= 4409 fps= 12 q=28.0 size=N/A time=00:03:03.87 bitrate=N/A speed=0.492x    
frame= 4415 fps= 12 q=28.0 size=N/A time=00:03:04.12 bitrate=N/A speed=0.492x    
frame= 4422 fps= 12 q=28.0 size=N/A time=00:03:04.42 bitrate=N/A speed=0.491x    
frame= 4430 fps= 12 q=28.0 size=N/A time=00:03:04.74 bitrate=N/A speed=0.491x    
frame= 4436 fps= 12 q=28.0 size=N/A time=00:03:05.00 bitrate=N/A speed=0.491x    
frame= 4444 fps= 12 q=28.0 size=N/A time=00:03:05.34 bitrate=N/A speed=0.492x    
frame= 4451 fps= 12 q=28.0 size=N/A time=00:03:05.62 bitrate=N/A speed=0.491x    
frame= 4465 fps= 12 q=28.0 size=N/A time=00:03:06.21 bitrate=N/A speed=0.492x    
frame= 4474 fps= 12 q=28.0 size=N/A time=00:03:06.58 bitrate=N/A speed=0.492x    
[hls @ 0x55c02c0ed0] Opening '/config/data/transcodes/7825d04a3ae9c06a3dd94820a00f8a6f61.ts' for writing
frame= 4487 fps= 12 q=28.0 size=N/A time=00:03:07.13 bitrate=N/A speed=0.493x    
frame= 4494 fps= 12 q=28.0 size=N/A time=00:03:07.39 bitrate=N/A speed=0.493x    
frame= 4500 fps= 12 q=28.0 size=N/A time=00:03:07.66 bitrate=N/A speed=0.493x    
frame= 4511 fps= 12 q=28.0 size=N/A time=00:03:08.11 bitrate=N/A speed=0.493x    
frame= 4521 fps= 12 q=28.0 size=N/A time=00:03:08.54 bitrate=N/A speed=0.494x    
frame= 4530 fps= 12 q=28.0 size=N/A time=00:03:08.92 bitrate=N/A speed=0.494x    
frame= 4540 fps= 12 q=28.0 size=N/A time=00:03:09.33 bitrate=N/A speed=0.494x    
frame= 4548 fps= 12 q=25.0 size=N/A time=00:03:09.67 bitrate=N/A speed=0.495x    
[hls @ 0x55c02c0ed0] Opening '/config/data/transcodes/7825d04a3ae9c06a3dd94820a00f8a6f62.ts' for writing
frame= 4556 fps= 12 q=28.0 size=N/A time=00:03:10.01 bitrate=N/A speed=0.495x    
frame= 4564 fps= 12 q=28.0 size=N/A time=00:03:10.33 bitrate=N/A speed=0.495x    
frame= 4571 fps= 12 q=28.0 size=N/A time=00:03:10.65 bitrate=N/A speed=0.495x    
frame= 4577 fps= 12 q=28.0 size=N/A time=00:03:10.89 bitrate=N/A speed=0.495x    
frame= 4585 fps= 12 q=28.0 size=N/A time=00:03:11.21 bitrate=N/A speed=0.495x    
frame= 4591 fps= 12 q=28.0 size=N/A time=00:03:11.46 bitrate=N/A speed=0.495x    
frame= 4598 fps= 12 q=28.0 size=N/A time=00:03:11.76 bitrate=N/A speed=0.495x    
frame= 4608 fps= 12 q=28.0 size=N/A time=00:03:12.17 bitrate=N/A speed=0.495x    
frame= 4615 fps= 12 q=28.0 size=N/A time=00:03:12.46 bitrate=N/A speed=0.495x    
frame= 4620 fps= 12 q=25.0 size=N/A time=00:03:12.68 bitrate=N/A speed=0.495x    
[hls @ 0x55c02c0ed0] Opening '/config/data/transcodes/7825d04a3ae9c06a3dd94820a00f8a6f63.ts' for writing
frame= 4626 fps= 12 q=28.0 size=N/A time=00:03:12.93 bitrate=N/A speed=0.495x    
frame= 4632 fps= 12 q=28.0 size=N/A time=00:03:13.17 bitrate=N/A speed=0.495x    
frame= 4639 fps= 12 q=28.0 size=N/A time=00:03:13.47 bitrate=N/A speed=0.495x    
frame= 4646 fps= 12 q=28.0 size=N/A time=00:03:13.77 bitrate=N/A speed=0.495x    
frame= 4653 fps= 12 q=28.0 size=N/A time=00:03:14.04 bitrate=N/A speed=0.495x    
frame= 4662 fps= 12 q=28.0 size=N/A time=00:03:14.43 bitrate=N/A speed=0.496x    
frame= 4669 fps= 12 q=28.0 size=N/A time=00:03:14.70 bitrate=N/A speed=0.496x    
frame= 4672 fps= 12 q=28.0 size=N/A time=00:03:14.83 bitrate=N/A speed=0.495x    
frame= 4681 fps= 12 q=28.0 size=N/A time=00:03:15.22 bitrate=N/A speed=0.495x    
frame= 4687 fps= 12 q=28.0 size=N/A time=00:03:15.49 bitrate=N/A speed=0.495x    
frame= 4694 fps= 12 q=28.0 size=N/A time=00:03:15.77 bitrate=N/A speed=0.495x    
[hls @ 0x55c02c0ed0] Opening '/config/data/transcodes/7825d04a3ae9c06a3dd94820a00f8a6f64.ts' for writing
frame= 4701 fps= 12 q=28.0 size=N/A time=00:03:16.05 bitrate=N/A speed=0.495x    
frame= 4710 fps= 12 q=28.0 size=N/A time=00:03:16.43 bitrate=N/A speed=0.495x    
frame= 4718 fps= 12 q=28.0 size=N/A time=00:03:16.75 bitrate=N/A speed=0.495x    
frame= 4724 fps= 12 q=28.0 size=N/A time=00:03:17.01 bitrate=N/A speed=0.495x    
frame= 4731 fps= 12 q=28.0 size=N/A time=00:03:17.31 bitrate=N/A speed=0.495x    
frame= 4739 fps= 12 q=28.0 size=N/A time=00:03:17.63 bitrate=N/A speed=0.495x    
frame= 4747 fps= 12 q=28.0 size=N/A time=00:03:17.97 bitrate=N/A speed=0.495x    
frame= 4757 fps= 12 q=28.0 size=N/A time=00:03:18.40 bitrate=N/A speed=0.496x    
frame= 4760 fps= 12 q=28.0 size=N/A time=00:03:18.52 bitrate=N/A speed=0.496x    
[hls @ 0x55c02c0ed0] Opening '/config/data/transcodes/7825d04a3ae9c06a3dd94820a00f8a6f65.ts' for writing
frame= 4769 fps= 12 q=28.0 size=N/A time=00:03:18.89 bitrate=N/A speed=0.496x    
frame= 4775 fps= 12 q=28.0 size=N/A time=00:03:19.16 bitrate=N/A speed=0.496x    
frame= 4783 fps= 12 q=28.0 size=N/A time=00:03:19.48 bitrate=N/A speed=0.496x    
frame= 4790 fps= 12 q=28.0 size=N/A time=00:03:19.74 bitrate=N/A speed=0.496x    
frame= 4796 fps= 12 q=28.0 size=N/A time=00:03:20.04 bitrate=N/A speed=0.496x    
frame= 4803 fps= 12 q=28.0 size=N/A time=00:03:20.32 bitrate=N/A speed=0.496x    
frame= 4810 fps= 12 q=28.0 size=N/A time=00:03:20.59 bitrate=N/A speed=0.496x    
frame= 4816 fps= 12 q=28.0 size=N/A time=00:03:20.85 bitrate=N/A speed=0.496x    
frame= 4826 fps= 12 q=28.0 size=N/A time=00:03:21.28 bitrate=N/A speed=0.496x    
frame= 4831 fps= 12 q=28.0 size=N/A time=00:03:21.47 bitrate=N/A speed=0.496x    
frame= 4837 fps= 12 q=28.0 size=N/A time=00:03:21.72 bitrate=N/A speed=0.496x    
[hls @ 0x55c02c0ed0] Opening '/config/data/transcodes/7825d04a3ae9c06a3dd94820a00f8a6f66.ts' for writing
frame= 4841 fps= 12 q=28.0 size=N/A time=00:03:21.89 bitrate=N/A speed=0.496x    
frame= 4848 fps= 12 q=28.0 size=N/A time=00:03:22.19 bitrate=N/A speed=0.496x    
frame= 4855 fps= 12 q=28.0 size=N/A time=00:03:22.47 bitrate=N/A speed=0.496x    
frame= 4861 fps= 12 q=28.0 size=N/A time=00:03:22.73 bitrate=N/A speed=0.496x    
frame= 4865 fps= 12 q=28.0 size=N/A time=00:03:22.90 bitrate=N/A speed=0.496x    
frame= 4872 fps= 12 q=28.0 size=N/A time=00:03:23.17 bitrate=N/A speed=0.496x    
frame= 4875 fps= 12 q=28.0 size=N/A time=00:03:23.30 bitrate=N/A speed=0.496x    
frame= 4883 fps= 12 q=28.0 size=N/A time=00:03:23.64 bitrate=N/A speed=0.496x    
frame= 4889 fps= 12 q=28.0 size=N/A time=00:03:23.90 bitrate=N/A speed=0.495x    
frame= 4897 fps= 12 q=28.0 size=N/A time=00:03:24.22 bitrate=N/A speed=0.496x    
frame= 4901 fps= 12 q=28.0 size=N/A time=00:03:24.39 bitrate=N/A speed=0.495x    
frame= 4909 fps= 12 q=28.0 size=N/A time=00:03:24.73 bitrate=N/A speed=0.496x    
[hls @ 0x55c02c0ed0] Opening '/config/data/transcodes/7825d04a3ae9c06a3dd94820a00f8a6f67.ts' for writing
frame= 4916 fps= 12 q=28.0 size=N/A time=00:03:25.03 bitrate=N/A speed=0.496x    
frame= 4924 fps= 12 q=28.0 size=N/A time=00:03:25.35 bitrate=N/A speed=0.496x    
frame= 4933 fps= 12 q=28.0 size=N/A time=00:03:25.73 bitrate=N/A speed=0.496x    
frame= 4942 fps= 12 q=28.0 size=N/A time=00:03:26.12 bitrate=N/A speed=0.496x    
frame= 4950 fps= 12 q=28.0 size=N/A time=00:03:26.44 bitrate=N/A speed=0.496x    
frame= 4957 fps= 12 q=28.0 size=N/A time=00:03:26.74 bitrate=N/A speed=0.496x    
frame= 4965 fps= 12 q=28.0 size=N/A time=00:03:27.06 bitrate=N/A speed=0.496x    
frame= 4973 fps= 12 q=28.0 size=N/A time=00:03:27.40 bitrate=N/A speed=0.497x    
frame= 4982 fps= 12 q=28.0 size=N/A time=00:03:27.78 bitrate=N/A speed=0.497x    
[hls @ 0x55c02c0ed0] Opening '/config/data/transcodes/7825d04a3ae9c06a3dd94820a00f8a6f68.ts' for writing
frame= 4985 fps= 12 q=28.0 size=N/A time=00:03:27.89 bitrate=N/A speed=0.496x    
frame= 4992 fps= 12 q=28.0 size=N/A time=00:03:28.19 bitrate=N/A speed=0.496x    
frame= 5000 fps= 12 q=28.0 size=N/A time=00:03:28.53 bitrate=N/A speed=0.496x    
frame= 5009 fps= 12 q=28.0 size=N/A time=00:03:28.89 bitrate=N/A speed=0.497x    
frame= 5015 fps= 12 q=28.0 size=N/A time=00:03:29.15 bitrate=N/A speed=0.497x    
frame= 5020 fps= 12 q=28.0 size=N/A time=00:03:29.36 bitrate=N/A speed=0.497x    
frame= 5027 fps= 12 q=28.0 size=N/A time=00:03:29.66 bitrate=N/A speed=0.497x    
frame= 5034 fps= 12 q=28.0 size=N/A time=00:03:29.94 bitrate=N/A speed=0.497x    
frame= 5042 fps= 12 q=28.0 size=N/A time=00:03:30.28 bitrate=N/A speed=0.497x    
frame= 5050 fps= 12 q=28.0 size=N/A time=00:03:30.62 bitrate=N/A speed=0.497x    
[hls @ 0x55c02c0ed0] Opening '/config/data/transcodes/7825d04a3ae9c06a3dd94820a00f8a6f69.ts' for writing
frame= 5056 fps= 12 q=28.0 size=N/A time=00:03:30.85 bitrate=N/A speed=0.497x    

[q] command received. Exiting.

[hls @ 0x55c02c0ed0] Opening '/config/data/transcodes/7825d04a3ae9c06a3dd94820a00f8a6f70.ts' for writing
frame= 5064 fps= 12 q=-1.0 Lsize=N/A time=00:03:31.22 bitrate=N/A speed=0.496x    
video:44525kB audio:9909kB subtitle:0kB other streams:0kB global headers:0kB muxing overhead: unknown
[libx264 @ 0x55c02c1480] frame I:71    Avg QP:17.66  size: 85296
[libx264 @ 0x55c02c1480] frame P:1571  Avg QP:21.13  size: 18887
[libx264 @ 0x55c02c1480] frame B:3422  Avg QP:24.60  size:  2883
[libx264 @ 0x55c02c1480] consecutive B-frames:  7.8%  4.3%  6.0% 81.9%
[libx264 @ 0x55c02c1480] mb I  I16..4: 47.2%  0.0% 52.8%
[libx264 @ 0x55c02c1480] mb P  I16..4: 18.8%  0.0%  0.0%  P16..4: 32.6%  0.0%  0.0%  0.0%  0.0%    skip:48.6%
[libx264 @ 0x55c02c1480] mb B  I16..4:  1.0%  0.0%  0.0%  B16..8:  9.8%  0.0%  0.0%  direct: 2.6%  skip:86.6%  L0:37.5% L1:49.6% BI:12.9%
[libx264 @ 0x55c02c1480] coded y,uvDC,uvAC intra: 27.6% 34.6% 7.9% inter: 4.3% 4.9% 0.1%
[libx264 @ 0x55c02c1480] i16 v,h,dc,p: 37% 29% 13% 21%
[libx264 @ 0x55c02c1480] i4 v,h,dc,ddl,ddr,vr,hd,vl,hu: 25% 24% 17%  4%  7%  5%  6%  5%  8%
[libx264 @ 0x55c02c1480] i8c dc,h,v,p: 49% 23% 20%  7%
[libx264 @ 0x55c02c1480] Weighted P-Frames: Y:2.5% UV:1.0%
[libx264 @ 0x55c02c1480] kb/s:1726.90